<svg width="178" height="119" viewBox="0 0 178 119" fill="none" xmlns="http://www.w3.org/2000/svg">
<path fill-rule="evenodd" clip-rule="evenodd" d="M177 70.2468V1.67305C177.027 1.07343 177.025 0.513367 177 0V1.67305C176.677 8.95642 172.245 22.0765 157 28.2471C155.5 28.8542 147.5 30.2471 134 30.2471H71C48.3563 30.2471 30 48.6034 30 71.2471V77.2471C30 79.4997 30.1817 81.7099 30.5311 83.8638C31.5803 108.124 11.1339 117.771 1.43381 118.247H0C0.445228 118.272 0.924717 118.272 1.43381 118.247H69.4998C69.3604 118.233 69.2214 118.218 69.083 118.203C69.7183 118.232 70.3574 118.247 71 118.247H136C158.644 118.247 177 99.8907 177 77.2471V71.2471C177 70.8186 176.993 70.3915 176.98 69.9662C176.987 70.0596 176.994 70.1531 177 70.2468Z" fill="white"/>
</svg>
