<svg width="24" height="24" viewBox="0 0 24 24" fill="none" xmlns="http://www.w3.org/2000/svg">
<path d="M2 4C2 3.73478 2.10536 3.48043 2.29289 3.29289C2.48043 3.10536 2.73478 3 3 3H13C13.2652 3 13.5196 3.10536 13.7071 3.29289C13.8946 3.48043 14 3.73478 14 4V21H3C2.73478 21 2.48043 20.8946 2.29289 20.7071C2.10536 20.5196 2 20.2652 2 20V4Z" stroke="white" stroke-width="2" stroke-linejoin="round"/>
<path d="M10.5 21V16.5C10.5 16.1022 10.342 15.7206 10.0607 15.4393C9.77936 15.158 9.39782 15 9 15H7C6.60218 15 6.22064 15.158 5.93934 15.4393C5.65804 15.7206 5.5 16.1022 5.5 16.5V21M14 12H21C21.2652 12 21.5196 12.1054 21.7071 12.2929C21.8946 12.4804 22 12.7348 22 13V20C22 20.2652 21.8946 20.5196 21.7071 20.7071C21.5196 20.8946 21.2652 21 21 21H14V12Z" stroke="white" stroke-width="2" stroke-linejoin="round"/>
<path d="M6 9H10M17 15H19M17 18H19M8 7V11M3.5 21H12.5" stroke="white" stroke-width="2" stroke-linecap="round" stroke-linejoin="round"/>
</svg>
