<svg width="70" height="70" viewBox="0 0 70 70" fill="none" xmlns="http://www.w3.org/2000/svg">
<path d="M58.847 44.4391L41.4334 39.6014L40.9697 36.82C41.4389 36.4941 41.8939 36.143 42.3303 35.7591C42.3336 35.7569 42.3358 35.7536 42.3391 35.7514C44.9094 33.4895 46.8989 30.2498 48.0506 26.25H48.125C51.1405 26.25 53.5938 23.7967 53.5938 20.7812V18.5938C53.5938 16.7847 52.1216 15.3125 50.3125 15.3125H49.2188V7.65625C49.2188 3.43438 45.7844 0 41.5625 0H24.0625C19.8406 0 16.4062 3.43438 16.4062 7.65625V15.3125H15.3125C13.5034 15.3125 12.0312 16.7847 12.0312 18.5938V20.7812C12.0312 23.7967 14.4845 26.25 17.5 26.25H17.5744C18.7261 30.2498 20.7156 33.4884 23.2859 35.7514C23.2892 35.7547 23.2914 35.7569 23.2947 35.7591C23.7311 36.143 24.1861 36.4941 24.6553 36.82L24.1916 39.6014L6.77797 44.4391C5.36375 44.8317 4.375 46.1311 4.375 47.6V68.9062C4.375 69.51 4.865 70 5.46875 70H60.1562C60.76 70 61.25 69.51 61.25 68.9062V47.6C61.25 46.1311 60.2613 44.8317 58.847 44.4391ZM47.0312 15.3125H42.5458C42.618 14.9592 42.6562 14.5928 42.6562 14.2188C42.6562 13.8447 42.618 13.4783 42.5458 13.125H47.0312V15.3125ZM40.4688 14.2188C40.4688 16.0278 38.9966 17.5 37.1875 17.5C35.3784 17.5 33.9062 16.0278 33.9062 14.2188C33.9062 12.4097 35.3784 10.9375 37.1875 10.9375C38.9966 10.9375 40.4688 12.4097 40.4688 14.2188ZM31.8292 15.3125H18.5938V13.125H31.8292C31.757 13.4783 31.7188 13.8447 31.7188 14.2188C31.7188 14.5928 31.757 14.9592 31.8292 15.3125ZM32.8409 17.5C33.8406 18.8202 35.408 19.6875 37.1875 19.6875C38.967 19.6875 40.5355 18.8202 41.5341 17.5H45.9375L41.1228 23.9192L33.0772 21.9078C32.9033 21.8641 32.7206 21.8641 32.5467 21.9078L24.5011 23.9192L19.6875 17.5H32.8409ZM25.1562 34.4411V26.0105L32.8125 24.0964L40.4688 26.0105V34.4411C38.2856 36.2086 35.6748 37.1875 32.8125 37.1875C29.9502 37.1875 27.3394 36.2086 25.1562 34.4411ZM50.3125 17.5C50.9152 17.5 51.4062 17.9911 51.4062 18.5938V20.7812C51.4062 22.5903 49.9341 24.0625 48.125 24.0625H47.2139C46.713 24.0625 46.2766 24.4027 46.1541 24.8883C45.4191 27.7911 44.2148 30.2684 42.6573 32.2273V25.5205L48.6719 17.5H50.3125ZM24.0625 2.1875H41.5625C44.578 2.1875 47.0312 4.64078 47.0312 7.65625V10.9375H41.5341C40.5355 9.61734 38.967 8.75 37.1875 8.75C35.408 8.75 33.8395 9.61734 32.8409 10.9375H18.5938V7.65625C18.5938 4.64078 21.047 2.1875 24.0625 2.1875ZM19.472 24.8883C19.3484 24.4027 18.9131 24.0625 18.4111 24.0625H17.5C15.6909 24.0625 14.2188 22.5903 14.2188 20.7812V18.5938C14.2188 17.9911 14.7098 17.5 15.3125 17.5H16.9531L22.9688 25.5205V32.2273C21.4112 30.2684 20.2059 27.7911 19.472 24.8883ZM32.8125 39.375C35.0066 39.375 37.0716 38.897 38.9484 38.0023L39.3247 40.2587L37.9269 42.6562H27.6992L26.3003 40.2587L26.6766 38.0023C28.5534 38.897 30.6184 39.375 32.8125 39.375ZM36.6505 44.8438L32.8125 51.4227L28.9745 44.8438H36.6505ZM59.0625 67.8125H50.3125V60.1562C50.3125 59.5525 49.8225 59.0625 49.2188 59.0625C48.615 59.0625 48.125 59.5525 48.125 60.1562V67.8125H17.5V60.1562C17.5 59.5525 17.01 59.0625 16.4062 59.0625C15.8025 59.0625 15.3125 59.5525 15.3125 60.1562V67.8125H6.5625V47.6C6.5625 47.1111 6.89172 46.6769 7.36312 46.5467L24.6356 41.7484L31.8664 54.145C32.258 54.8166 33.3638 54.8166 33.7564 54.145L40.9872 41.7484L58.2597 46.5467C58.7333 46.6769 59.0625 47.1111 59.0625 47.6V67.8125Z" fill="white"/>
<path d="M48.125 53.5938H41.5625C40.9588 53.5938 40.4688 54.0838 40.4688 54.6875C40.4688 55.2912 40.9588 55.7812 41.5625 55.7812H48.125C48.7288 55.7812 49.2188 55.2912 49.2188 54.6875C49.2188 54.0838 48.7288 53.5938 48.125 53.5938Z" fill="white"/>
<path d="M37.1875 15.3125C37.7916 15.3125 38.2812 14.8228 38.2812 14.2188C38.2812 13.6147 37.7916 13.125 37.1875 13.125C36.5834 13.125 36.0938 13.6147 36.0938 14.2188C36.0938 14.8228 36.5834 15.3125 37.1875 15.3125Z" fill="white"/>
<path d="M64.5312 15.3125C65.135 15.3125 65.625 14.8225 65.625 14.2188V12.0312C65.625 7.80938 62.1906 4.375 57.9688 4.375C57.365 4.375 56.875 4.865 56.875 5.46875V20.7812V37.1875C56.875 39.6003 58.8372 41.5625 61.25 41.5625C63.6628 41.5625 65.625 39.6003 65.625 37.1875V22.9688C65.625 21.5447 64.7073 20.3416 63.4375 19.8888V15.3125H64.5312ZM63.4375 12.0312V13.125H62.3438C61.74 13.125 61.25 13.615 61.25 14.2188V19.6875H59.0625V6.67297C61.5552 7.18047 63.4375 9.38984 63.4375 12.0312ZM63.4375 37.1875C63.4375 38.3939 62.4564 39.375 61.25 39.375C60.0436 39.375 59.0625 38.3939 59.0625 37.1875V21.875H62.3438C62.9464 21.875 63.4375 22.3661 63.4375 22.9688V37.1875Z" fill="white"/>
</svg>
