<svg width="70" height="70" viewBox="0 0 70 70" fill="none" xmlns="http://www.w3.org/2000/svg">
<path d="M31.8498 15.8594L33.7748 14.8313C33.3573 13.9149 32.6635 13.1522 31.7906 12.65C30.9178 12.1479 29.9097 11.9315 28.9076 12.0313C28.1319 12.1864 27.4017 12.5161 26.7725 12.9956C26.1433 13.4751 25.6316 14.0917 25.2764 14.7985L27.2232 15.7938C27.4226 15.4038 27.7035 15.0613 28.047 14.7895C28.3905 14.5177 28.7885 14.3231 29.2139 14.2188C29.7686 14.188 30.3194 14.329 30.7911 14.6226C31.2628 14.9162 31.6325 15.3481 31.8498 15.8594Z" fill="white"/>
<path d="M40.7855 14.2188C41.213 14.3255 41.6122 14.5235 41.9558 14.7992C42.2994 15.0748 42.5793 15.4216 42.7762 15.8157L44.723 14.8204C44.3704 14.1095 43.8598 13.4886 43.2305 13.0052C42.6011 12.5218 41.8696 12.1887 41.0918 12.0313C40.0949 11.9296 39.0911 12.1403 38.2191 12.634C37.3472 13.1278 36.6502 13.8804 36.2246 14.7875L38.1496 15.8157C38.3763 15.3144 38.7495 14.8936 39.22 14.6085C39.6905 14.3235 40.2363 14.1876 40.7855 14.2188Z" fill="white"/>
<path d="M65.9418 28.8203L62.77 22.4656C62.1915 21.2991 61.2977 20.318 60.19 19.6336C59.0822 18.9493 57.8049 18.589 56.5028 18.5938H53.6918C52.2153 18.5938 50.7993 19.1803 49.7552 20.2243C48.7112 21.2684 48.1247 22.6844 48.1247 24.1609V25.5719C48.1264 26.5964 47.9257 27.6111 47.534 28.5578L46.1012 31.9703C45.18 34.2127 43.5964 36.1205 41.5622 37.4391V25.1562C41.5691 24.011 41.8756 22.8875 42.4512 21.8974C43.0268 20.9073 43.8516 20.0851 44.8434 19.5125C46.1595 18.7528 47.2551 17.6634 48.0222 16.3516C48.7893 15.0398 49.2016 13.5508 49.2184 12.0312V2.1875C49.2184 1.89742 49.1032 1.61922 48.8981 1.4141C48.6929 1.20898 48.4147 1.09375 48.1247 1.09375H43.7497C43.4596 1.09375 43.1814 1.20898 42.9763 1.4141C42.7711 1.61922 42.6559 1.89742 42.6559 2.1875V6.5625C41.6919 5.85933 40.5296 5.48043 39.3364 5.48043C38.1432 5.48043 36.9808 5.85933 36.0168 6.5625L34.9997 7.32812L33.9825 6.5625C33.0185 5.85933 31.8561 5.48043 30.6629 5.48043C29.4697 5.48043 28.3074 5.85933 27.3434 6.5625V2.1875C27.3434 1.89742 27.2282 1.61922 27.0231 1.4141C26.8179 1.20898 26.5397 1.09375 26.2497 1.09375H21.8747C21.5846 1.09375 21.3064 1.20898 21.1013 1.4141C20.8961 1.61922 20.7809 1.89742 20.7809 2.1875V12.0312C20.7863 13.562 21.1932 15.0645 21.9609 16.3888C22.7286 17.7131 23.8303 18.8128 25.1559 19.5781C26.1382 20.1451 26.9569 20.957 27.5319 21.9346C28.107 22.9122 28.4189 24.0222 28.4372 25.1562V37.4281C26.4029 36.1096 24.8193 34.2017 23.8981 31.9594L22.4653 28.5469C22.0751 27.6036 21.8744 26.5927 21.8747 25.5719V24.1609C21.8747 22.6844 21.2881 21.2684 20.2441 20.2243C19.2 19.1803 17.784 18.5938 16.3075 18.5938H13.4965C12.1944 18.589 10.9171 18.9493 9.80935 19.6336C8.70161 20.318 7.80781 21.2991 7.22934 22.4656L4.05747 28.8203C1.57594 33.7771 0.620308 39.3586 1.31146 44.8586C2.00261 50.3586 4.30949 55.53 7.94028 59.7188L14.2184 66.8938C14.7617 67.522 15.4333 68.0267 16.1879 68.3738C16.9426 68.721 17.7628 68.9025 18.5934 68.9062C20.0629 68.8977 21.4761 68.3397 22.555 67.3418C23.6338 66.3439 24.3002 64.9785 24.4231 63.5141L24.7512 59.1391C24.8589 57.825 25.2428 56.5484 25.878 55.393C26.5132 54.2376 27.3853 53.2294 28.4372 52.4344V67.8125C28.4372 68.1026 28.5524 68.3808 28.7575 68.5859C28.9626 68.791 29.2408 68.9062 29.5309 68.9062H40.4684C40.7585 68.9062 41.0367 68.791 41.2418 68.5859C41.4469 68.3808 41.5622 68.1026 41.5622 67.8125V52.4344C42.6246 53.2333 43.5048 54.2492 44.1441 55.4147C44.7834 56.5802 45.1672 57.8684 45.27 59.1937L45.5981 63.5687C45.7335 65.0196 46.4024 66.3687 47.4753 67.3547C48.5482 68.3407 49.9488 68.8936 51.4059 68.9062C52.2365 68.9025 53.0567 68.721 53.8114 68.3738C54.566 68.0267 55.2376 67.522 55.7809 66.8938L62.0043 59.7188C65.6351 55.53 67.942 50.3586 68.6332 44.8586C69.3243 39.3586 68.3687 33.7771 65.8872 28.8203H65.9418ZM39.3747 28.4375V30.625H30.6247V28.4375H39.3747ZM30.6247 32.8125H39.3747V35H30.6247V32.8125ZM26.2497 17.6422C25.2626 17.0724 24.4409 16.2553 23.8656 15.2715C23.2902 14.2876 22.981 13.1709 22.9684 12.0312V3.28125H25.1559V8.75C25.1565 8.95198 25.213 9.14985 25.3192 9.32166C25.4254 9.49348 25.5771 9.63255 25.7575 9.72344C25.9391 9.81557 26.1428 9.85517 26.3457 9.83778C26.5486 9.82039 26.7426 9.74669 26.9059 9.625L28.5793 8.36719C29.1717 7.93018 29.8885 7.6944 30.6247 7.6944C31.3608 7.6944 32.0776 7.93018 32.67 8.36719L33.9059 9.29688V12.0312H36.0934V9.29688L37.3293 8.36719C37.9217 7.93018 38.6385 7.6944 39.3747 7.6944C40.1108 7.6944 40.8276 7.93018 41.42 8.36719L43.0934 9.625C43.2567 9.74669 43.4507 9.82039 43.6536 9.83778C43.8565 9.85517 44.0602 9.81557 44.2418 9.72344C44.4222 9.63255 44.5739 9.49348 44.6801 9.32166C44.7863 9.14985 44.8428 8.95198 44.8434 8.75V3.28125H47.0309V12.0312C47.024 13.1765 46.7175 14.3 46.1419 15.2901C45.5662 16.2802 44.7415 17.1024 43.7497 17.675C42.4336 18.4347 41.338 19.5241 40.5709 20.8359C39.8037 22.1477 39.3915 23.6367 39.3747 25.1562V26.25H36.0934V17.5H33.9059V26.25H30.6247V25.1562C30.6135 23.6311 30.204 22.1354 29.4365 20.8173C28.6691 19.4993 27.5705 18.4047 26.2497 17.6422ZM30.6247 37.1875H39.3747V38.5547C36.5614 39.6529 33.4379 39.6529 30.6247 38.5547V37.1875ZM30.6247 59.0625H39.3747V61.25H30.6247V59.0625ZM30.6247 56.875V54.6875H39.3747V56.875H30.6247ZM30.6247 52.5V51.1L31.1606 50.7937C31.7137 50.4783 32.3395 50.3124 32.9762 50.3125H37.0231C37.6565 50.3113 38.2791 50.4773 38.8278 50.7937L39.3747 51.1V52.5H30.6247ZM30.6247 66.7188V63.4375H39.3747V66.7188H30.6247ZM60.4075 58.2859L54.184 65.4609C53.7117 66.0041 53.0895 66.3955 52.3954 66.5863C51.7014 66.777 50.9665 66.7584 50.2829 66.5329C49.5994 66.3074 48.9977 65.885 48.5534 65.3187C48.1091 64.7525 47.842 64.0676 47.7856 63.35L47.4465 58.975C47.3054 57.0975 46.7062 55.2833 45.7013 53.6911C44.6964 52.0989 43.3165 50.7774 41.6825 49.8422L39.9215 48.8906C39.0377 48.3895 38.0391 48.1257 37.0231 48.125H32.9762C31.9602 48.1257 30.9616 48.3895 30.0778 48.8906L28.3168 49.8969C26.6784 50.8351 25.2957 52.1618 24.2906 53.7601C23.2854 55.3584 22.6887 57.1793 22.5528 59.0625L22.2137 63.4375C22.1573 64.1551 21.8902 64.84 21.4459 65.4062C21.0016 65.9725 20.3999 66.3949 19.7164 66.6204C19.0328 66.8459 18.2979 66.8645 17.6039 66.6738C16.9098 66.483 16.2876 66.0916 15.8153 65.5484L9.59184 58.2859C6.25717 54.4274 4.13746 49.6692 3.49916 44.6095C2.86085 39.5498 3.73243 34.4143 6.00434 29.8484L9.18715 23.4391C9.58554 22.6378 10.2004 21.9641 10.962 21.4943C11.7237 21.0246 12.6017 20.7776 13.4965 20.7812H16.3075C17.2038 20.7812 18.0635 21.1373 18.6973 21.7711C19.3311 22.405 19.6872 23.2646 19.6872 24.1609V25.5719C19.6886 26.8858 19.9487 28.1866 20.4528 29.4L21.8747 32.8125C22.9543 35.4037 24.7768 37.6173 27.1125 39.1745C29.4482 40.7316 32.1925 41.5625 34.9997 41.5625C37.8068 41.5625 40.5511 40.7316 42.8868 39.1745C45.2225 37.6173 47.045 35.4037 48.1247 32.8125L49.5465 29.4C50.0506 28.1866 50.3107 26.8858 50.3122 25.5719V24.1609C50.3122 23.7171 50.3996 23.2776 50.5694 22.8676C50.7393 22.4575 50.9882 22.085 51.302 21.7711C51.6159 21.4573 51.9884 21.2084 52.3985 21.0385C52.8085 20.8687 53.248 20.7812 53.6918 20.7812H56.5028C57.3976 20.7776 58.2756 21.0246 59.0373 21.4943C59.7989 21.9641 60.4138 22.6378 60.8122 23.4391L63.995 29.8047C66.2669 34.3705 67.1385 39.506 66.5002 44.5658C65.8618 49.6255 63.7421 54.3837 60.4075 58.2422V58.2859Z" fill="white"/>
<path d="M11.8891 51.9641C9.92588 48.4436 8.84856 44.4984 8.75 40.4688H6.5625C6.64927 44.4362 7.61435 48.3351 9.38832 51.8849C11.1623 55.4347 13.701 58.5472 16.8219 60.9984L18.1781 59.2703C15.621 57.2729 13.4837 54.7899 11.8891 51.9641Z" fill="white"/>
<path d="M63.4367 33.5562C62.2445 30.1034 60.285 26.9659 57.7055 24.3796L56.1523 25.9328C58.5017 28.2724 60.2829 31.1199 61.3586 34.2562C62.2089 36.9701 62.5428 39.8193 62.343 42.6562C62.343 43.0499 62.343 43.4109 62.343 43.75H64.5305C64.5305 43.4328 64.5305 43.0718 64.5305 42.6562C64.7371 39.5812 64.3662 36.4947 63.4367 33.5562Z" fill="white"/>
</svg>
