<svg width="70" height="70" viewBox="0 0 70 70" fill="none" xmlns="http://www.w3.org/2000/svg">
<g clip-path="url(#clip0_241_615)">
<path d="M50.8328 42.8262H45.0605V45.1537H50.8328V42.8262Z" fill="white"/>
<path d="M50.8325 37.4963H44.7344V39.8239H50.8325V37.4963Z" fill="white"/>
<path d="M69.8485 32.0964L64.0297 19.295C63.888 18.9823 63.6154 18.7479 63.2849 18.655C62.9599 18.5648 62.6118 18.6199 62.3306 18.8062L60.8526 19.7838C58.4517 21.3744 57.6215 24.5103 58.9208 27.0806L59.5492 28.3374L60.3173 31.4214H49.1918C49.0757 31.4214 48.9595 31.425 48.8437 31.432C45.6938 31.6249 43.2966 34.3346 43.4894 37.4846L44.0829 47.0157C44.2733 50.0253 46.7697 52.3689 49.7853 52.369H53.6606V69.8254H55.9881V51.2052C55.9881 50.5626 55.4671 50.0415 54.8244 50.0415H49.7853C48.0026 50.0392 46.5268 48.655 46.4104 46.8761L45.8169 37.3333C45.7536 36.4052 46.083 35.4931 46.7246 34.8195C47.3615 34.134 48.256 33.7457 49.1918 33.7489H61.8069C62.1569 33.7438 62.486 33.5813 62.703 33.3067C62.9235 33.0233 63.0008 32.6539 62.9125 32.3058L61.7487 27.6508C61.7281 27.5657 61.6968 27.4837 61.6556 27.4064L60.9806 26.0332C60.22 24.514 60.7208 22.666 62.1444 21.7389L62.4819 21.5062L67.6257 32.8412V69.8254H69.9532V32.5851C69.9541 32.4165 69.9184 32.2498 69.8485 32.0964Z" fill="white"/>
<path d="M58.6422 32.6549L58.6073 31.5144C58.6073 30.1069 57.4662 28.9658 56.0587 28.9658H54.8251C53.431 28.9721 52.3007 30.0973 52.2881 31.4912V32.6549H54.6156V31.4912C54.6155 31.3735 54.7075 31.2763 54.8251 31.2701H56.0936C56.2156 31.2701 56.3147 31.3691 56.3147 31.4912V32.6549H58.6422Z" fill="white"/>
<path d="M56.64 8.15796H54.3125V30.1297H56.64V8.15796Z" fill="white"/>
<path d="M56.4769 3.49121H54.4753C53.8326 3.49121 53.3115 4.01228 53.3115 4.65497V9.31C53.3115 9.95268 53.8326 10.4738 54.4753 10.4738H56.4769C57.1196 10.4738 57.6407 9.95268 57.6407 9.31V4.65497C57.6407 4.01228 57.1196 3.49121 56.4769 3.49121Z" fill="white"/>
<path d="M61.2257 0H49.5881C47.9812 0 46.6787 1.30254 46.6787 2.90939C46.6787 4.51625 47.9812 5.81879 49.5881 5.81879H61.2257C62.8325 5.81879 64.1351 4.51625 64.1351 2.90939C64.1351 1.30254 62.8325 0 61.2257 0ZM61.2257 3.49127H49.5881C49.2668 3.49127 49.0062 3.23074 49.0062 2.90939C49.0062 2.58805 49.2668 2.32751 49.5881 2.32751H61.2257C61.547 2.32751 61.8076 2.58805 61.8076 2.90939C61.8076 3.23074 61.547 3.49127 61.2257 3.49127Z" fill="white"/>
<path d="M21.0756 17.4563H0.12793V19.7838H21.0756C29.431 19.7838 36.2044 26.5572 36.2044 34.9127V69.8254H38.5319V34.9127C38.5319 25.2718 30.7164 17.4563 21.0756 17.4563Z" fill="white"/>
<path d="M12.6347 39.8734C12.6173 39.2309 12.0825 38.7241 11.4401 38.7414L0.046875 39.5677L0.209801 41.8952L10.0552 41.1737C8.17892 50.6699 7.90355 60.4129 9.24056 69.9999L11.4401 69.6508C10.0729 59.8338 10.467 49.8515 12.6038 40.1728C12.6269 40.0748 12.6374 39.9741 12.6347 39.8734Z" fill="white"/>
<path d="M30.6181 37.1821C30.2949 36.9098 29.8494 36.834 29.4543 36.9842C28.8213 37.2102 28.1588 37.3434 27.4876 37.3799C26.706 37.3604 25.9273 37.2747 25.1601 37.1239L24.7295 39.4514C25.6474 39.6226 26.5774 39.7199 27.5109 39.7423C28.2116 39.7221 28.9072 39.6167 29.5824 39.4281C30.2632 40.1932 30.6326 41.1856 30.6181 42.2095C30.62 42.8666 30.4601 43.5141 30.1526 44.0948C30.0678 44.2605 30.0239 44.4441 30.0246 44.6301V69.8255H32.3521L32.3288 44.8629C33.5471 42.2088 32.8477 39.0681 30.6181 37.1821Z" fill="white"/>
<path d="M25.777 37.5427C25.5166 37.2767 25.1445 37.1511 24.7761 37.2052C23.5727 37.3795 22.3605 37.4883 21.1452 37.5311C19.9493 37.4874 18.7566 37.3788 17.5725 37.2052C17.2098 37.152 16.8432 37.2727 16.5833 37.5311C15.3657 38.7763 14.6775 40.4446 14.6631 42.1861C14.6779 45.0215 16.5213 47.5231 19.225 48.3773V69.8253H21.5525V47.4812C21.5582 46.8971 21.1301 46.3992 20.5517 46.3175C18.5142 46.0134 17.0025 44.2694 16.9906 42.2094C16.9889 41.2577 17.2951 40.3311 17.8634 39.5677C18.9514 39.7194 20.0471 39.8088 21.1452 39.8353C22.2588 39.8081 23.37 39.7188 24.4736 39.5677C25.0038 40.3343 25.2915 41.2425 25.2998 42.1745V69.8253H27.6273V42.1978C27.6281 40.4667 26.966 38.8009 25.777 37.5427Z" fill="white"/>
<path d="M26.2424 23.2752C25.2833 23.2714 24.3362 23.4863 23.4727 23.9036L24.4619 25.9984C25.02 25.7399 25.6274 25.6049 26.2424 25.6027C26.2434 25.6027 26.2446 25.6027 26.2456 25.6027C28.5401 25.6036 30.3995 27.4644 30.3986 29.7589C30.3977 32.0534 28.5369 33.9128 26.2424 33.9119C25.6303 33.9166 25.0253 33.7813 24.4735 33.5163L23.4727 35.6227C24.3392 36.0295 25.2851 36.2402 26.2424 36.2394C26.2443 36.2394 26.2462 36.2394 26.2479 36.2394C29.8279 36.2378 32.7287 33.3346 32.7273 29.7546C32.7258 26.1746 29.8224 23.2736 26.2424 23.2752Z" fill="white"/>
<path d="M21.6807 23.2751H0.12793V25.6027H21.6923C21.6934 25.6027 21.6945 25.6027 21.6956 25.6027C23.99 25.6035 25.8494 27.4644 25.8486 29.7589C25.8477 32.0534 23.9868 33.9128 21.6923 33.9119C19.5785 33.8041 17.8469 32.1951 17.5843 30.0948C17.5025 29.5164 17.0046 29.0881 16.4205 29.0939H0.12793V31.4214H15.4895C16.2967 34.1956 18.7933 36.1384 21.6807 36.2394C21.6826 36.2394 21.6845 36.2394 21.6862 36.2394C25.2662 36.2378 28.1671 33.3345 28.1656 29.7545C28.1642 26.1745 25.2607 23.2735 21.6807 23.2751Z" fill="white"/>
<path d="M45.5143 1.16382C36.5161 1.16382 29.2217 8.45825 29.2217 17.4564H31.5492C31.5492 9.74376 37.8016 3.49133 45.5143 3.49133H46.678V1.16382H45.5143Z" fill="white"/>
<path d="M45.5142 8.14624C40.3724 8.14624 36.2041 12.3145 36.2041 17.4563H38.5316C38.5316 13.5999 41.6578 10.4738 45.5142 10.4738H46.6779V8.14624H45.5142Z" fill="white"/>
</g>
<defs>
<clipPath id="clip0_241_615">
<rect width="70" height="70" fill="white"/>
</clipPath>
</defs>
</svg>
