<svg width="24" height="24" viewBox="0 0 24 24" fill="none" xmlns="http://www.w3.org/2000/svg">
<path d="M11.4998 15.792C11.1194 15.9577 10.7037 16.0261 10.2902 15.9911C9.87675 15.956 9.47851 15.8186 9.13141 15.5912C8.78432 15.3638 8.49928 15.0535 8.30202 14.6885C8.10475 14.3234 8.00146 13.915 8.00146 13.5C8.00146 13.085 8.10475 12.6766 8.30202 12.3115C8.49928 11.9465 8.78432 11.6362 9.13141 11.4088C9.47851 11.1814 9.87675 11.044 10.2902 11.0089C10.7037 10.9739 11.1194 11.0423 11.4998 11.208V15.792Z" fill="#3D8E86"/>
<path fill-rule="evenodd" clip-rule="evenodd" d="M5.0025 2.449C5.01513 2.32585 5.07299 2.21176 5.1649 2.12882C5.2568 2.04587 5.3762 1.99997 5.5 2H10.5C10.6326 2 10.7598 2.05268 10.8536 2.14645C10.9473 2.24021 11 2.36739 11 2.5V4C11 4.13261 10.9473 4.25979 10.8536 4.35355C10.7598 4.44732 10.6326 4.5 10.5 4.5H10V5.6365C10.1463 5.68822 10.2729 5.78404 10.3625 5.91075C10.452 6.03747 10.5001 6.18884 10.5 6.344V9C11.3475 8.99993 12.1777 9.23915 12.8952 9.69015C13.6127 10.1411 14.1882 10.7856 14.5556 11.5492C14.9229 12.3129 15.0672 13.1648 14.9718 14.0069C14.8763 14.8489 14.545 15.6469 14.016 16.309L15.241 17.534C15.4106 17.4886 15.5891 17.4886 15.7587 17.5341C15.9283 17.5795 16.0829 17.6688 16.207 17.793L18.707 20.293C18.8025 20.3852 18.8787 20.4956 18.9311 20.6176C18.9835 20.7396 19.0111 20.8708 19.0123 21.0036C19.0134 21.1364 18.9881 21.2681 18.9378 21.391C18.8875 21.5138 18.8133 21.6255 18.7194 21.7194C18.6255 21.8133 18.5138 21.8875 18.391 21.9378C18.2681 21.9881 18.1364 22.0134 18.0036 22.0123C17.8708 22.0111 17.7396 21.9835 17.6176 21.9311C17.4956 21.8787 17.3852 21.8025 17.293 21.707L14.793 19.207C14.6688 19.0829 14.5795 18.9283 14.5341 18.7587C14.4886 18.5891 14.4886 18.4106 14.534 18.241L13.309 17.016C12.5122 17.6545 11.5211 18.0017 10.5 18V19.5C10.4816 20.1508 10.2101 20.7688 9.74329 21.2226C9.27646 21.6764 8.65106 21.9303 8 21.9303C7.34894 21.9303 6.72354 21.6764 6.25671 21.2226C5.78987 20.7688 5.51841 20.1508 5.5 19.5V6.344C5.49992 6.18884 5.54796 6.03747 5.63751 5.91075C5.72706 5.78404 5.85371 5.68822 6 5.6365V4.5H5.5C5.36739 4.5 5.24021 4.44732 5.14645 4.35355C5.05268 4.25979 5 4.13261 5 4V2.5C5 2.48233 5.00083 2.46533 5.0025 2.449ZM8.685 10.5065C9.24754 10.1655 9.8948 9.98987 10.5526 9.99984C11.2103 10.0098 11.852 10.205 12.4039 10.5629C12.9558 10.9209 13.3957 11.4271 13.6731 12.0236C13.9505 12.6201 14.0542 13.2827 13.9722 13.9354C13.8903 14.5881 13.626 15.2045 13.2098 15.714C12.7936 16.2234 12.2422 16.6052 11.6189 16.8156C10.9957 17.026 10.3257 17.0565 9.68587 16.9036C9.04605 16.7506 8.46228 16.4205 8.0015 15.951L8 15.9495C7.3581 15.2959 6.99893 14.4161 7 13.5C6.99893 12.5839 7.3581 11.7041 8 11.0505C8.20469 10.8412 8.43482 10.6585 8.685 10.5065ZM9.5 6.5515C9.35371 6.49978 9.22706 6.40396 9.13751 6.27725C9.04796 6.15053 8.99992 5.99916 9 5.844V4.5H7V5.844C6.99998 5.99908 6.95188 6.15034 6.86234 6.27695C6.7728 6.40356 6.64621 6.49931 6.5 6.551V9H9.5V6.5515Z" fill="#3D8E86"/>
</svg>
