<svg width="70" height="70" viewBox="0 0 70 70" fill="none" xmlns="http://www.w3.org/2000/svg">
<path d="M41.4011 56.4059L24.4873 46.6376L26.1629 43.738L43.0734 53.5063L41.4011 56.4059Z" fill="white"/>
<path d="M58.6589 61.9674C63.5436 57.354 66.6389 50.8724 66.6389 43.6384C66.6389 34.7254 61.9577 26.6863 54.6787 22.1713L62.8338 8.05539L61.553 7.31711L63.5644 3.8193L58.2914 0.775391L56.2756 4.26773L54.927 3.48898L34.8786 38.2177L36.6297 39.2284L34.1436 43.529L38.5492 46.0731L41.0364 41.7702L42.7853 42.7809L51.2159 28.1804C53.8155 29.8366 55.9557 32.1212 57.4389 34.8231C58.9222 37.525 59.7006 40.5572 59.7023 43.6395C59.7023 53.7457 51.4752 61.9685 41.3678 61.9685H26.5956V68.9084H68.1778V61.9685H58.6611L58.6589 61.9674ZM21.747 8.60227V3.09305H22.4252L22.4153 1.7718H16.2367L16.2466 3.09305H16.975V8.60227H12.3648V3.09305H13.0408L13.0331 1.7718H6.84906L6.86109 3.09305H7.58953V8.60227H0.820312V36.1987H28.4583V8.60227H21.7492H21.747ZM26.1177 33.8624H3.15766V10.9385H7.58844V28.5698C7.58844 29.9041 8.67891 30.9881 9.99469 30.9881C11.3127 30.9826 12.3637 29.902 12.3637 28.5698V10.9385H16.9739V28.5698C16.9739 29.9041 18.0655 30.9881 19.3812 30.9881C20.6992 30.9826 21.7503 29.902 21.7481 28.5698V10.9385H26.1177V33.8624Z" fill="white"/>
</svg>
