<svg width="70" height="70" viewBox="0 0 70 70" fill="none" xmlns="http://www.w3.org/2000/svg">
<g clip-path="url(#clip0_241_837)">
<path fill-rule="evenodd" clip-rule="evenodd" d="M15.2553 54.4171C15.2142 54.4171 15.2142 54.4171 15.1322 54.4171C14.3941 54.2941 13.738 54.1301 12.9178 53.802H12.8768C9.96528 52.2847 8.65303 48.9631 9.5552 45.8875C7.58683 45.7645 5.74149 44.7803 4.55227 43.14C2.66592 40.5155 3.03499 36.9479 5.12638 34.6514C3.24003 33.6263 2.17383 31.8219 2.17383 29.7715C2.17383 27.7212 3.32204 25.8758 5.16738 24.8506C3.03499 22.6362 2.66592 19.0686 4.55227 16.362C5.74149 14.7217 7.58683 13.6966 9.5552 13.5735C8.65303 10.58 10.0063 7.21735 12.8768 5.74107C14.6812 4.7979 16.8135 4.75689 18.5769 5.53604C19.151 2.41946 21.8575 0.0410156 25.0971 0.0410156C26.9424 0.0410156 28.5827 0.697137 29.854 2.00938C31.0842 3.32162 31.7813 5.08495 31.7813 6.93029V28.9514C31.7813 29.5255 31.3302 29.9766 30.7561 29.9766C30.182 29.9766 29.7309 29.5255 29.7309 28.9514V6.84828C29.772 5.53604 29.2799 4.30581 28.3777 3.40364C27.5165 2.46046 26.3273 1.96837 25.0561 1.96837C22.5136 1.96837 20.3812 4.05976 20.3812 6.64324V7.21735C20.3812 7.58642 20.1762 7.95549 19.8071 8.11952C19.479 8.28355 19.069 8.24254 18.7409 7.99649C17.3056 6.80727 15.3783 6.64324 13.656 7.5044C11.4005 8.61161 10.4984 11.4821 11.6876 13.7376C11.6876 13.8196 11.7286 13.8606 11.7696 13.9426C11.8516 14.0246 11.8926 14.1476 11.9746 14.2707C12.1387 14.5987 12.0567 15.0088 11.8516 15.3369C11.6056 15.6239 11.2365 15.7879 10.8264 15.7059C9.06311 15.2958 7.17676 15.993 6.11056 17.5103C4.59328 19.6016 5.08537 22.5132 7.13575 23.9895C7.21776 24.1125 7.4228 24.2355 7.46381 24.2355C7.87389 24.3995 8.03792 24.8096 8.03792 25.1787C7.9559 25.5888 7.66885 25.9578 7.29978 26.0398C4.88033 26.696 4.06018 28.3363 4.06018 29.6895C4.06018 31.0838 4.88033 32.7241 7.29978 33.3392C7.66885 33.4622 7.9559 33.7903 8.03792 34.2004C8.07892 34.6104 7.87389 34.9795 7.46381 35.1435C7.4228 35.1435 7.34079 35.2256 7.29978 35.2666C7.29978 35.3486 7.17676 35.3896 7.13575 35.4306C5.12638 36.9889 4.67529 39.9004 6.15157 41.9508C7.21776 43.4271 9.10412 44.1652 10.9495 43.7551C11.3185 43.7141 11.6876 43.8372 11.8926 44.1242C12.1387 44.3702 12.1797 44.8623 12.0157 45.1904C11.9746 45.3134 11.8926 45.3954 11.8516 45.5185C11.7696 45.6005 11.7696 45.6415 11.7286 45.6825C10.5804 47.9789 11.5236 50.8084 13.738 51.9567C13.779 52.0387 13.902 52.0387 13.943 52.0797C13.779 51.0135 13.738 49.9063 13.738 48.7581C13.738 48.184 14.1891 47.7329 14.7632 47.7329C15.3373 47.7329 15.7884 48.184 15.7884 48.7581C15.7884 50.3574 15.9524 51.7926 16.2804 53.2279C16.3625 53.556 16.2804 53.843 16.0754 54.1301C15.7884 54.2941 15.5423 54.4171 15.2553 54.4171Z" fill="white"/>
<path fill-rule="evenodd" clip-rule="evenodd" d="M54.7455 54.4171C54.4584 54.4171 54.1714 54.2941 53.9663 54.089C53.7613 53.843 53.7203 53.5149 53.7613 53.1459C54.0893 51.6696 54.3354 50.1933 54.3354 48.717C54.3354 48.1429 54.7865 47.6918 55.3606 47.6918C55.9347 47.6918 56.3858 48.1429 56.3858 48.717C56.3858 49.7832 56.2627 50.9314 56.0987 52.0387C56.1397 51.9566 56.2627 51.9566 56.3038 51.9156C58.6002 50.7674 59.5023 47.9379 58.3131 45.6415C58.2721 45.4774 58.1901 45.3544 58.1491 45.3134C57.9031 44.9443 57.862 44.4933 58.0671 44.1652C58.3131 43.8371 58.7232 43.6321 59.0923 43.7141C60.9376 44.1242 62.824 43.345 63.8902 41.8688C65.3664 39.8184 64.9154 36.9479 62.906 35.3896C62.865 35.3486 62.742 35.2665 62.7009 35.2255C62.6599 35.1435 62.5779 35.1435 62.5369 35.1025C62.1268 34.9385 61.9628 34.5284 61.9628 34.1593C62.0038 33.7493 62.2909 33.3802 62.7009 33.2982C65.0794 32.6421 65.9405 31.0017 65.9405 29.6485C65.9405 28.2542 65.0794 26.6139 62.7009 25.9988C62.2909 25.8758 62.0038 25.5477 61.9628 25.1377C61.8808 24.7276 62.1268 24.3585 62.5369 24.1535C62.5779 24.1125 62.742 24.0715 62.865 23.9484C63.8902 23.2103 64.5873 22.1851 64.7513 20.9139C64.9564 19.6836 64.6283 18.4944 63.8902 17.4692C62.824 15.9109 60.9376 15.2138 59.1743 15.6239C58.7642 15.7469 58.3131 15.5829 58.0671 15.1728C57.862 14.8447 57.862 14.3937 58.1491 14.0246C58.1901 13.9426 58.2721 13.8606 58.3131 13.6965C59.5023 11.4001 58.6002 8.57058 56.3038 7.38136C54.6635 6.5202 52.6951 6.76625 51.2598 7.87345C50.9728 8.1195 50.5627 8.16051 50.1526 7.99648C49.8246 7.83245 49.6195 7.50439 49.6195 7.09431C49.6195 6.97129 49.6195 6.84826 49.6195 6.76625C49.6195 6.68423 49.6195 6.64323 49.6195 6.5202C49.6195 3.97773 47.4871 1.84533 44.9446 1.84533C43.6734 1.84533 42.4842 2.37843 41.582 3.2806C40.6799 4.18277 40.1878 5.37199 40.2698 6.68423V28.7873C40.2698 29.3614 39.8187 29.8125 39.2446 29.8125C38.6705 29.8125 38.2194 29.3614 38.2194 28.7873V6.84826C38.1374 5.08494 38.8345 3.32161 40.1057 2.00937C41.336 0.697121 43.0583 -0.0410156 44.8626 -0.0410156C48.1022 -0.0410156 50.8497 2.37843 51.4238 5.454C53.1872 4.63385 55.2786 4.71587 57.1239 5.61804C60.0354 7.09431 61.3887 10.4569 60.4045 13.4505C62.3729 13.5735 64.1772 14.5577 65.3664 16.198C66.3916 17.6333 66.8427 19.3966 66.5557 21.1599C66.3506 22.5132 65.7355 23.7024 64.7923 24.6866C66.6787 25.7118 67.8269 27.5161 67.8269 29.5665C67.8269 31.6169 66.6787 33.3802 64.8743 34.4874C67.0067 36.7428 67.3758 40.3515 65.4485 43.017C64.2182 44.6573 62.4139 45.6415 60.4865 45.7645C61.3887 48.758 60.0765 52.1207 57.1649 53.679C56.3858 54.007 55.6476 54.2531 54.8275 54.3351C54.7865 54.4171 54.7455 54.4171 54.7455 54.4171Z" fill="white"/>
<path fill-rule="evenodd" clip-rule="evenodd" d="M35.0212 70C23.2931 70 13.7383 60.4452 13.7383 48.717C13.7383 36.9889 23.2931 27.4341 35.0212 27.4341C46.7494 27.4341 56.2632 36.9889 56.2632 48.717C56.2632 60.4862 46.7494 70 35.0212 70ZM35.0212 29.4845C24.3593 29.4845 15.7066 38.1371 15.7066 48.758C15.7066 59.42 24.3593 68.0726 35.0212 68.0726C45.6832 68.0726 54.3358 59.42 54.3358 48.758C54.2538 38.1371 45.6012 29.4845 35.0212 29.4845Z" fill="white"/>
<path fill-rule="evenodd" clip-rule="evenodd" d="M36.7436 59.8301H33.1349C32.3968 59.8301 31.7817 59.215 31.7817 58.3949V51.9157H25.3435C24.6053 51.9157 23.9082 51.2596 23.9082 50.5214V46.9538C23.9082 46.2156 24.6053 45.5185 25.3435 45.5185H31.8227V39.0803C31.8227 38.3011 32.4788 37.686 33.2169 37.686H36.7846C37.6047 37.686 38.2199 38.3011 38.2199 39.0803V45.6005H44.6991C45.5192 45.6005 46.1343 46.2156 46.1343 46.9948V50.6034C46.0113 51.3416 45.4372 51.9157 44.6581 51.9157H38.1378V58.3949C38.1378 59.215 37.5227 59.8301 36.7436 59.8301ZM33.832 57.8208H36.1695V50.9315C36.1695 50.3574 36.6206 49.9063 37.1947 49.9063H44.084V47.5689H37.1947C36.6206 47.5689 36.1695 47.1178 36.1695 46.5437V39.7364H33.832V46.6257C33.832 47.1998 33.381 47.6509 32.8069 47.6509H25.9176V49.9883H32.8069C33.381 49.9883 33.832 50.4394 33.832 51.0135V57.8208Z" fill="white"/>
</g>
<defs>
<clipPath id="clip0_241_837">
<rect width="70" height="70" fill="white"/>
</clipPath>
</defs>
</svg>
