<svg width="24" height="24" viewBox="0 0 24 24" fill="none" xmlns="http://www.w3.org/2000/svg">
<path d="M17.4 22.0001C13.3173 21.9948 9.40331 20.3706 6.5164 17.4837C3.62949 14.5968 2.00529 10.6828 2 6.60008C2 5.38008 2.48464 4.21005 3.34731 3.34738C4.20998 2.48472 5.38 2.00008 6.6 2.00008C6.85833 1.99849 7.1162 2.02193 7.37 2.07008C7.61506 2.10763 7.8561 2.16789 8.09 2.25008C8.25425 2.3077 8.40061 2.40721 8.51461 2.53875C8.62861 2.67029 8.7063 2.8293 8.74 3.00008L10.11 9.00008C10.1469 9.16294 10.1425 9.33246 10.0971 9.49316C10.0516 9.65386 9.96671 9.80063 9.85 9.92008C9.72 10.0601 9.71 10.0701 8.48 10.7101C9.46425 12.8714 11.1927 14.607 13.35 15.6001C14 14.3601 14.01 14.3501 14.15 14.2201C14.2694 14.1034 14.4162 14.0184 14.5769 13.973C14.7376 13.9276 14.9071 13.9231 15.07 13.9601L21.07 15.3301C21.2353 15.3684 21.3881 15.4482 21.5141 15.5619C21.64 15.6756 21.735 15.8195 21.79 15.9801C21.8746 16.2174 21.9382 16.4616 21.98 16.7101C22.0193 16.9615 22.0394 17.2156 22.04 17.4701C22.0216 18.6849 21.5233 19.843 20.654 20.6917C19.7847 21.5404 18.6149 22.0108 17.4 22.0001ZM6.6 4.00008C5.91125 4.00271 5.25146 4.27748 4.76443 4.76451C4.27741 5.25153 4.00263 5.91132 4 6.60008C4.00265 10.1532 5.41528 13.56 7.92769 16.0724C10.4401 18.5848 13.8469 19.9974 17.4 20.0001C18.0888 19.9974 18.7485 19.7227 19.2356 19.2356C19.7226 18.7486 19.9974 18.0888 20 17.4001V17.0701L15.36 16.0001L15.07 16.5501C14.62 17.4201 14.29 18.0501 13.45 17.7101C11.7929 17.1169 10.2887 16.1621 9.04673 14.915C7.80477 13.6678 6.85622 12.1597 6.27 10.5001C5.91 9.72008 6.59 9.36007 7.45 8.91008L8 8.64008L6.93 4.00008H6.6Z" fill="#3D8E86"/>
</svg>
