<svg width="24" height="24" viewBox="0 0 24 24" fill="none" xmlns="http://www.w3.org/2000/svg">
<path d="M12 4.5V6M12 6V7.5M12 6H13.5M12 6H10.5M4 22V11.97C4 8.661 4 7.006 5.025 5.978C5.677 5.325 6.581 5.087 8 5M20 22V11.97C20 8.661 20 7.006 18.975 5.978C18.323 5.325 17.419 5.087 16 5M3 22H21M9.5 22V19.5C9.5 18.565 9.5 18.098 9.701 17.75C9.83265 17.522 10.022 17.3326 10.25 17.201C10.598 17 11.065 17 12 17C12.935 17 13.402 17 13.75 17.201C13.978 17.3326 14.1674 17.522 14.299 17.75C14.5 18.098 14.5 18.565 14.5 19.5V22M8.009 13H8M12 13H11.991M16.001 13H15.992M8.586 2.586C8 3.172 8 4.114 8 6C8 7.886 8 8.828 8.586 9.414C9.172 10 10.114 10 12 10C13.886 10 14.828 10 15.414 9.414C16 8.828 16 7.886 16 6C16 4.114 16 3.172 15.414 2.586C14.828 2 13.886 2 12 2C10.114 2 9.172 2 8.586 2.586Z" stroke="white" stroke-width="1.5" stroke-linecap="round" stroke-linejoin="round"/>
</svg>
