<svg width="70" height="70" viewBox="0 0 70 70" fill="none" xmlns="http://www.w3.org/2000/svg">
<path fill-rule="evenodd" clip-rule="evenodd" d="M59.6094 59.1992H10.3906C9.84375 59.1992 9.43359 58.7891 9.43359 58.2422V52.2266C9.43359 51.6797 9.84375 51.2695 10.3906 51.2695C10.9375 51.2695 11.3477 51.6797 11.3477 52.2266V57.2852H58.6523V52.2266C58.6523 51.6797 59.0625 51.2695 59.6094 51.2695C60.1562 51.2695 60.5664 51.6797 60.5664 52.2266V58.2422C60.5664 58.7891 60.1562 59.1992 59.6094 59.1992Z" fill="white"/>
<path fill-rule="evenodd" clip-rule="evenodd" d="M59.6093 53.1836H10.3906C10.1171 53.1836 9.70699 52.9102 9.57027 52.6367C9.43355 52.3633 9.43355 51.9531 9.70699 51.6797L25.1562 28.7109C25.4296 28.4375 25.7031 28.3008 25.9765 28.3008H44.0234C44.2968 28.3008 44.5703 28.4375 44.8437 28.7109L60.2929 51.6797C60.5664 51.9531 60.5664 52.3633 60.4296 52.6367C60.2929 52.9102 59.8828 53.1836 59.6093 53.1836ZM12.3046 51.2695H57.6953L43.4765 30.2148H26.5234L12.3046 51.2695Z" fill="white"/>
<path fill-rule="evenodd" clip-rule="evenodd" d="M51.4059 48.8085C50.9958 48.8085 50.7223 48.6718 50.5856 48.3984L40.8786 34.1796C40.6051 33.7695 40.7419 33.0859 41.152 32.8124C41.5622 32.539 42.1091 32.6757 42.5192 33.0859L52.0895 47.3046C52.363 47.7148 52.363 48.3984 51.8161 48.6718C51.6794 48.8085 51.5426 48.8085 51.4059 48.8085Z" fill="white"/>
<path fill-rule="evenodd" clip-rule="evenodd" d="M45.8008 70H24.1992C23.6523 70 23.2422 69.5898 23.2422 69.043V58.2422C23.2422 57.6953 23.6523 57.2852 24.1992 57.2852C24.7461 57.2852 25.1562 57.6953 25.1562 58.2422V68.0859H44.8438V58.2422C44.8438 57.6953 45.2539 57.2852 45.8008 57.2852C46.3477 57.2852 46.7578 57.6953 46.7578 58.2422V69.043C46.7578 69.5898 46.3477 70 45.8008 70Z" fill="white"/>
<path fill-rule="evenodd" clip-rule="evenodd" d="M52.9102 43.3398C52.7734 43.3398 52.5 43.3398 52.2266 43.2031C51.9531 42.793 51.9531 42.2461 52.2266 41.8359C56.3281 37.3242 58.6523 31.582 58.6523 25.5664C58.6523 12.5781 47.9883 1.91406 35 1.91406C22.0117 1.91406 11.3477 12.5781 11.3477 25.5664C11.3477 31.582 13.6719 37.3242 17.7734 41.8359C18.0469 42.2461 18.0469 42.793 17.7734 43.2031C17.3633 43.4766 16.6797 43.4766 16.4062 43.0664C11.8945 38.2812 9.43359 32.1289 9.43359 25.5664C9.43359 11.4844 20.918 0 35 0C49.082 0 60.5664 11.4844 60.5664 25.5664C60.5664 32.1289 58.1055 38.2812 53.5938 43.0664C53.457 43.3398 53.1836 43.3398 52.9102 43.3398Z" fill="white"/>
<path fill-rule="evenodd" clip-rule="evenodd" d="M15.0391 26.5234C14.4922 26.5234 14.082 26.1132 14.082 25.5663C14.082 22.0116 15.0391 18.3202 16.8164 15.1757C18.5938 12.1679 21.0547 9.57024 24.0625 7.79289C24.4727 7.51946 25.0195 7.65617 25.4297 8.06633C25.7031 8.47649 25.5664 9.16008 25.0195 9.43352C19.4141 12.8515 15.9961 19.0038 15.9961 25.5663C15.9961 26.1132 15.5859 26.5234 15.0391 26.5234Z" fill="white"/>
<path fill-rule="evenodd" clip-rule="evenodd" d="M39.1016 6.69922H30.8984C30.3516 6.69922 29.9414 6.28906 29.9414 5.74219V1.36719C29.9414 0.820312 30.3516 0.410156 30.8984 0.410156C31.4453 0.410156 31.8555 0.820312 31.8555 1.36719V4.78516H38.1445V1.36719C38.1445 0.820312 38.5547 0.410156 39.1016 0.410156C39.6484 0.410156 40.0586 0.820312 40.0586 1.36719V5.74219C40.0586 6.28906 39.6484 6.69922 39.1016 6.69922Z" fill="white"/>
<path fill-rule="evenodd" clip-rule="evenodd" d="M22.9688 34.7266C22.6953 34.7266 22.2852 34.5898 22.1484 34.3164C20.3711 31.7188 19.5508 28.7109 19.5508 25.5664C19.5508 17.0898 26.5234 10.1172 35 10.1172C43.4766 10.1172 50.4492 17.0898 50.4492 25.5664C50.4492 28.7109 49.6289 31.7188 47.8516 34.3164C47.5781 34.7266 46.8945 34.8633 46.4844 34.5898C46.0742 34.1797 45.9375 33.6328 46.2109 33.2227C47.7148 30.8984 48.5352 28.3008 48.5352 25.5664C48.5352 18.0469 42.5195 12.0312 35 12.0312C27.4805 12.0312 21.4648 18.0469 21.4648 25.5664C21.4648 28.3008 22.2852 30.8984 23.7891 33.2227C24.0625 33.6328 23.9258 34.1797 23.5156 34.5898C23.3789 34.5898 23.1055 34.7266 22.9688 34.7266Z" fill="white"/>
<path fill-rule="evenodd" clip-rule="evenodd" d="M18.5937 48.8085C18.457 48.8085 18.3202 48.8085 18.1835 48.6718C17.6366 48.3984 17.6366 47.7148 17.9101 47.3046L27.4804 33.0859C27.8905 32.6757 28.4374 32.539 28.8476 32.8124C29.2577 33.0859 29.3945 33.7695 29.121 34.1796L19.414 48.3984C19.2773 48.6718 19.0038 48.8085 18.5937 48.8085Z" fill="white"/>
<path fill-rule="evenodd" clip-rule="evenodd" d="M38.2812 34.3164H31.7188C31.1719 34.3164 30.7617 33.9062 30.7617 33.3594V29.2578C30.7617 28.7109 31.1719 28.3008 31.7188 28.3008C32.2656 28.3008 32.6758 28.7109 32.6758 29.2578V32.4023H37.3242V29.2578C37.3242 28.7109 37.7344 28.3008 38.2812 28.3008C38.8281 28.3008 39.2383 28.7109 39.2383 29.2578V33.3594C39.2383 33.9062 38.8281 34.3164 38.2812 34.3164Z" fill="white"/>
</svg>
