<svg width="70" height="70" viewBox="0 0 70 70" fill="none" xmlns="http://www.w3.org/2000/svg">
<g clip-path="url(#clip0_241_764)">
<path d="M66.5 0.000976562H26.8346C24.9016 0.000976562 23.3347 1.5679 23.3347 3.50085V13.7894C22.0028 13.1617 20.5489 12.8355 19.0765 12.8339H18.2598C12.6891 12.8403 8.17495 17.3546 8.1685 22.9252V23.3335H7.58515C5.33006 23.3335 3.50192 25.1616 3.50192 27.4167C3.50192 29.6718 5.33006 31.5 7.58515 31.5H8.21157C8.36844 33.6647 9.22648 35.7194 10.6557 37.3529C7.62108 37.3957 4.73681 38.681 2.6759 40.9088C0.903508 42.926 -0.0503535 45.5332 0.00205011 48.2179V51.3327C0.00205011 53.2657 1.56898 54.8326 3.50192 54.8326H12.9516C13.4304 57.1372 15.244 58.9302 17.5539 59.3825C18.1023 65.3897 23.1356 69.9907 29.1677 69.9988H36.1675C42.6077 69.9918 47.8268 64.7727 47.8338 58.3325V34.9999H66.4999C68.4328 34.9999 69.9997 33.433 69.9997 31.5001V3.50085C70 1.5679 68.4329 0.000976562 66.5 0.000976562ZM18.2598 15.1672H19.0765C23.3593 15.1717 26.8301 18.6425 26.8346 22.9252V24.6239C24.6994 24.0957 23.0184 22.4514 22.4434 20.3284C22.2983 19.7593 21.7528 19.3869 21.17 19.4587C20.5871 19.5307 20.1487 20.0246 20.1462 20.6119C20.1582 21.1514 19.9233 21.667 19.5081 22.0118C17.7231 23.6112 13.0438 23.6673 10.5017 23.5027V22.9252C10.5062 18.6425 13.977 15.1717 18.2598 15.1672ZM29.1679 25.6669H29.7512C30.7176 25.6669 31.5011 26.4504 31.5011 27.4168C31.5011 28.3833 30.7176 29.1668 29.7512 29.1668H29.1679V25.6669ZM5.83521 27.4168C5.83521 26.4504 6.61873 25.6669 7.58515 25.6669H8.1685V29.1668H7.58515C6.61862 29.1668 5.83521 28.3833 5.83521 27.4168ZM10.5017 30.3334V25.8395C13.0076 25.9958 18.5012 26.0426 21.0631 23.7489C21.1646 23.6579 21.2615 23.5647 21.3513 23.4678C22.5693 25.3943 24.5761 26.6843 26.8344 26.9922V30.7418C26.8325 35.0256 23.3603 38.498 19.0764 38.4998H18.2597C13.9761 38.4973 10.5042 35.0253 10.5017 30.7418V30.3334ZM2.33534 51.3327V48.2179C2.28385 46.1149 3.02085 44.0688 4.40142 42.4816C6.11865 40.6366 8.54177 39.6124 11.0618 39.6665H13.5561C15.0047 40.4349 16.62 40.8356 18.2599 40.8331H19.0766C20.7161 40.8359 22.3312 40.4352 23.7794 39.6665H26.2748C28.7958 39.6126 31.2199 40.6378 32.9375 42.484C34.3167 44.071 35.0527 46.1161 35.0012 48.218V51.3328C35.0012 51.9771 34.4789 52.4994 33.8347 52.4994H31.5014V50.1661C31.5014 49.5219 30.9791 48.9995 30.3348 48.9995C29.6905 48.9995 29.1682 49.5219 29.1682 50.1661V52.4994H24.5016V51.1181C26.1087 50.55 27.0727 48.9066 26.7845 47.2266C26.4962 45.5465 25.0396 44.3186 23.3349 44.3186C21.6302 44.3186 20.1737 45.5465 19.8854 47.2266C19.5971 48.9066 20.5611 50.55 22.1682 51.1181V52.4994H15.1682V51.1181C16.7754 50.55 17.7394 48.9066 17.4511 47.2266C17.1628 45.5465 15.7062 44.3186 14.0015 44.3186C12.2969 44.3186 10.8404 45.5465 10.5521 47.2266C10.2638 48.9066 11.2278 50.55 12.835 51.1181V52.4994H8.1685V50.1661C8.1685 49.5219 7.64619 48.9995 7.00191 48.9995C6.35763 48.9995 5.83533 49.5219 5.83533 50.1661V52.4994H3.50192C2.85765 52.4994 2.33534 51.9771 2.33534 51.3327ZM23.3347 48.9995C22.6904 48.9995 22.1681 48.4772 22.1681 47.833C22.1681 47.1887 22.6904 46.6664 23.3347 46.6664C23.979 46.6664 24.5013 47.1887 24.5013 47.833C24.5013 48.4772 23.979 48.9995 23.3347 48.9995ZM14.0017 48.9995C13.3574 48.9995 12.8351 48.4772 12.8351 47.833C12.8351 47.1887 13.3574 46.6664 14.0017 46.6664C14.6459 46.6664 15.1682 47.1887 15.1682 47.833C15.1682 48.4772 14.6459 48.9995 14.0017 48.9995ZM15.3829 54.8327H21.9534C21.4665 56.2304 20.1483 57.167 18.6682 57.167C17.1879 57.167 15.8699 56.2304 15.3829 54.8327ZM45.5006 58.3326C45.4949 63.4847 41.3196 67.6599 36.1676 67.6656H29.1679C24.4158 67.6585 20.4259 64.0862 19.8955 59.3638C22.1562 58.8739 23.9159 57.0978 24.3847 54.8326H33.8344C35.7674 54.8326 37.3343 53.2657 37.3343 51.3327V48.2179C37.3869 45.5346 36.434 42.9287 34.6628 40.9125C32.6022 38.6831 29.7173 37.3963 26.6818 37.353C27.3026 36.6448 27.8207 35.8527 28.2207 34.9999H45.5009V58.3326H45.5006ZM67.6667 31.5001C67.6667 32.1443 67.1444 32.6666 66.5001 32.6666H28.9707C29.0444 32.2811 29.0959 31.8915 29.1247 31.5001H29.7511C32.0062 31.5001 33.8343 29.6719 33.8343 27.4168C33.8343 25.1618 32.0062 23.3336 29.7511 23.3336H29.1677V22.9253C29.1665 19.9957 27.8886 17.2121 25.6679 15.3013V3.50085C25.6679 2.85657 26.1902 2.33426 26.8344 2.33426H66.4999C67.1441 2.33426 67.6665 2.85657 67.6665 3.50085V31.5001H67.6667Z" fill="white"/>
<path d="M64.1671 16.3338H55.5551L51.2175 7.64586C51.0095 7.2302 50.5748 6.97763 50.1106 7.00296C49.6465 7.0283 49.2417 7.32672 49.0803 7.76253L43.0149 23.9169L39.5512 16.9789C39.3527 16.5814 38.9455 16.3313 38.5013 16.3337H31.5015C30.8573 16.3337 30.335 16.856 30.335 17.5003C30.335 18.1446 30.8573 18.6669 31.5015 18.6669H37.7803L42.1178 27.3548C42.3164 27.7523 42.7235 28.0024 43.1678 28H43.2296C43.6932 27.9756 44.0981 27.6788 44.2609 27.244L50.3203 11.0839L53.7899 18.023C53.9879 18.4181 54.3922 18.6674 54.8341 18.667H64.1671C64.8114 18.667 65.3337 18.1447 65.3337 17.5004C65.3337 16.8562 64.8114 16.3338 64.1671 16.3338Z" fill="white"/>
</g>
<defs>
<clipPath id="clip0_241_764">
<rect width="70" height="70" fill="white"/>
</clipPath>
</defs>
</svg>
