<svg width="70" height="70" viewBox="0 0 70 70" fill="none" xmlns="http://www.w3.org/2000/svg">
<g clip-path="url(#clip0_241_723)">
<path d="M15.4085 34.6168C15.4085 34.0127 14.9188 33.5229 14.3147 33.5229H11.42C10.8159 33.5229 10.3262 34.0127 10.3262 34.6168C10.3262 35.2208 10.8159 35.7106 11.42 35.7106H14.3146C14.9188 35.7106 15.4085 35.2209 15.4085 34.6168Z" fill="white"/>
<path d="M62.9634 20.0023C52.2325 9.67075 41.4169 15.6529 46.2986 25.4877C47.5921 28.0935 48.5863 30.1443 49.2372 31.8677H45.1346C43.7491 31.8677 42.6218 30.7408 42.6218 29.3558V6.82522C42.6218 5.09633 41.215 3.6897 39.4857 3.6897C37.7564 3.6897 36.3496 5.09633 36.3496 6.82522V29.5218C36.3496 31.6011 37.0912 33.5105 38.3235 34.9997C37.0602 36.5326 36.3496 38.4758 36.3496 40.4779V63.1744C36.3496 64.9033 37.7564 66.3099 39.4857 66.3099C41.215 66.3099 42.6218 64.9033 42.6218 63.1744V40.644C42.6218 39.259 43.7491 38.1321 45.1346 38.1321H49.7168C49.3082 39.2252 48.5887 40.3265 47.5275 41.5873C41.7752 48.4204 46.7788 61.9294 59.3058 56.9886C72.0698 51.9538 73.5568 30.2013 62.9634 20.0023ZM38.5374 6.82522C38.5374 6.30252 38.9627 5.8773 39.4858 5.8773C40.0089 5.8773 40.4343 6.30252 40.4343 6.82522V29.3558C40.4343 31.9472 42.5429 34.0553 45.1348 34.0553H49.904C50.0561 34.7351 50.1291 35.3556 50.1255 35.9404C44.4711 35.916 44.1817 36.0741 42.7404 35.5455C40.2896 34.6409 38.5375 32.2823 38.5375 29.5219V6.82522H38.5374ZM40.4341 40.644V63.1746C40.4341 63.6973 40.0088 64.1225 39.4857 64.1225C38.9626 64.1225 38.5372 63.6973 38.5372 63.1746V40.4779C38.5372 39.0083 39.0216 37.6259 39.9172 36.4993C40.4627 36.8942 41.049 37.2212 41.6652 37.4762C40.9011 38.3123 40.4341 39.4247 40.4341 40.644ZM58.503 54.9535C48.1441 59.0386 44.8742 48.136 49.201 42.9961C50.6247 41.3048 51.5224 39.8061 51.9704 38.3001C52.8335 38.6112 54.0862 39.4978 54.3465 42.025C54.4076 42.6186 54.9374 43.0631 55.5467 43.001C56.1476 42.9391 56.5846 42.4017 56.5226 41.8008C56.1427 38.1139 54.0052 36.5875 52.3127 36.1174C52.3561 35.0909 52.0793 33.7652 52.0834 33.7852C55.3722 32.7325 56.1209 29.3606 56.0241 27.5525C55.9921 26.9512 55.4802 26.4909 54.8784 26.5211C54.2769 26.5506 53.8126 27.0632 53.8394 27.6648C53.8398 27.675 53.8804 28.7028 53.4627 29.74C53.0681 30.7199 52.4161 31.3588 51.4842 31.6785C50.7855 29.6723 49.6735 27.3667 48.2581 24.5152C44.3366 16.6148 52.9012 13.3515 61.446 21.5784C71.0103 30.7862 69.6096 50.5727 58.503 54.9535Z" fill="white"/>
<path d="M58.5783 33.5229H55.6836C55.0796 33.5229 54.5898 34.0127 54.5898 34.6168C54.5898 35.2208 55.0796 35.7106 55.6836 35.7106H58.5783C59.1823 35.7106 59.6721 35.2208 59.6721 34.6168C59.6721 34.0127 59.1823 33.5229 58.5783 33.5229Z" fill="white"/>
<path d="M30.5125 3.6897C28.7833 3.6897 27.3764 5.09633 27.3764 6.82522V29.3558C27.3764 30.7408 26.2491 31.8677 24.8636 31.8677C24.4605 31.8677 26.2874 31.872 20.7595 31.872C21.4103 30.1477 22.4051 28.0957 23.6996 25.4878C28.5821 15.6514 17.7672 9.66938 7.03483 20.0024C-3.58231 30.2244 -2.03745 51.9674 10.6926 56.9887C23.2175 61.929 28.2248 48.4227 22.471 41.5874C21.4097 40.3266 20.6901 39.2253 20.2816 38.1322H24.8638C26.2494 38.1322 27.3767 39.259 27.3767 40.6441V63.1747C27.3767 64.9036 28.7835 66.3102 30.5128 66.3102C32.2421 66.3102 33.6488 64.9036 33.6488 63.1747V40.4779C33.6488 38.3985 32.9072 36.4892 31.6748 35C32.938 33.467 33.6488 31.5238 33.6488 29.5218V6.82522C33.6486 5.09633 32.2418 3.6897 30.5125 3.6897ZM29.5642 29.3558V6.82522C29.5642 6.30252 29.9897 5.8773 30.5126 5.8773C31.0356 5.8773 31.4611 6.30252 31.4611 6.82522V29.5218C31.4611 30.9913 30.9768 32.3737 30.0811 33.5005C29.5356 33.1056 28.9492 32.7786 28.333 32.5236C29.0973 31.6875 29.5642 30.5751 29.5642 29.3558ZM11.4954 54.9535C0.379306 50.569 -1.00613 30.7807 8.55221 21.5782C17.0933 13.3551 25.6644 16.6094 21.7403 24.5149C20.3249 27.3664 19.213 29.672 18.5142 31.6782C17.5822 31.3585 16.9302 30.7196 16.5356 29.7397C16.1223 28.7132 16.1577 27.6959 16.1589 27.6653C16.1889 27.0639 15.7267 26.5509 15.1249 26.5186C14.5185 26.4854 14.0065 26.9492 13.9741 27.5524C13.9663 27.6991 13.9135 29.027 14.4727 30.472C14.9425 31.6861 15.9139 33.1506 17.915 33.7876C17.7566 34.552 17.668 35.3295 17.6856 36.1174C15.9929 36.5876 13.8555 38.114 13.4757 41.8008C13.4094 42.4442 13.9135 43.0067 14.5651 43.0067C15.1189 43.0067 15.5938 42.5878 15.6518 42.0249C15.9109 39.5104 17.1573 38.6204 18.0295 38.305C18.4779 39.8094 19.3753 41.3066 20.7975 42.9959C25.0993 48.1065 21.9054 59.0598 11.4954 54.9535ZM31.461 63.1746C31.461 63.6973 31.0355 64.1225 30.5125 64.1225C29.9895 64.1225 29.564 63.6973 29.564 63.1746V40.644C29.564 38.0526 27.4555 35.9445 24.8636 35.9445H19.8728C19.8688 35.3595 19.9416 34.7392 20.0933 34.0594H25.0405C28.574 34.0594 31.4608 36.932 31.4608 40.4779L31.461 63.1746Z" fill="white"/>
</g>
<defs>
<clipPath id="clip0_241_723">
<rect width="70" height="70" fill="white"/>
</clipPath>
</defs>
</svg>
