<svg width="24" height="24" viewBox="0 0 24 24" fill="none" xmlns="http://www.w3.org/2000/svg">
<path d="M12 19C10.9333 19 9.875 18.9583 8.825 18.875C7.775 18.7917 6.725 18.6667 5.675 18.5C5.19167 18.4333 4.79167 18.2123 4.475 17.837C4.15833 17.4617 4 17.0243 4 16.525V15.875C3.1 15.6417 2.375 15.1667 1.825 14.45C1.275 13.7333 1 12.9167 1 12C1 11.1 1.275 10.2917 1.825 9.57501C2.375 8.85834 3.1 8.38334 4 8.15001V7.00001C4 6.46667 4.18767 6.00001 4.563 5.60001C4.93833 5.20001 5.40067 5.00001 5.95 5.00001C6.43333 5.00001 6.91667 5.04567 7.4 5.13701C7.88333 5.22834 8.375 5.29101 8.875 5.32501C9.39167 5.39167 9.90833 5.42901 10.425 5.43701C10.9417 5.44501 11.4667 5.44934 12 5.45001C12.5167 5.45001 13.0333 5.44167 13.55 5.42501C14.0667 5.40834 14.5917 5.37501 15.125 5.32501C15.6083 5.29167 16.0877 5.22901 16.563 5.13701C17.0383 5.04501 17.5173 4.99934 18 5.00001C18.55 5.00001 19.021 5.19601 19.413 5.58801C19.805 5.98001 20.0007 6.45067 20 7.00001V8.15001C20.8833 8.38334 21.6043 8.85834 22.163 9.57501C22.7217 10.2917 23.0007 11.1 23 12C23 12.9167 22.721 13.7293 22.163 14.438C21.605 15.1467 20.884 15.6173 20 15.85V16.5C20 17 19.8373 17.4377 19.512 17.813C19.1867 18.1883 18.7827 18.4173 18.3 18.5C17.25 18.6833 16.2 18.8127 15.15 18.888C14.1 18.9633 13.05 19.0007 12 19ZM12 17C13 17 14 16.9583 15 16.875C16 16.7917 17 16.6667 18 16.5V7.00001C17 7.15001 16 7.26267 15 7.33801C14 7.41334 13 7.45067 12 7.45001C10.9833 7.45001 9.975 7.41267 8.975 7.33801C7.975 7.26334 6.98333 7.15067 6 7.00001C5.98333 7.00001 5.97933 7.00434 5.988 7.01301C5.99667 7.02167 6.00067 7.01734 6 7.00001V16.5C7 16.6667 7.996 16.7917 8.988 16.875C9.98 16.9583 10.984 17 12 17ZM12 15.5C12.7167 15.5 13.4293 15.4583 14.138 15.375C14.8467 15.2917 15.5507 15.1583 16.25 14.975C16.5333 14.8917 16.7417 14.7333 16.875 14.5C17.0083 14.2667 17.0333 14.0167 16.95 13.75C16.8667 13.4833 16.7083 13.2793 16.475 13.138C16.2417 12.9967 15.9917 12.9673 15.725 13.05C15.1083 13.2167 14.4917 13.3333 13.875 13.4C13.2583 13.4667 12.6333 13.5 12 13.5C11.3667 13.5 10.7373 13.4707 10.112 13.412C9.48667 13.3533 8.866 13.2327 8.25 13.05C7.98333 12.9667 7.73333 12.9917 7.5 13.125C7.26667 13.2583 7.10833 13.4583 7.025 13.725C6.94167 13.9917 6.971 14.2417 7.113 14.475C7.255 14.7083 7.459 14.8667 7.725 14.95C8.425 15.1667 9.12933 15.3127 9.838 15.388C10.5467 15.4633 11.2673 15.5007 12 15.5ZM4 13.725V10.3C3.68333 10.4833 3.43767 10.725 3.263 11.025C3.08833 11.325 3.00067 11.65 3 12C3 12.3667 3.08767 12.7 3.263 13C3.43833 13.3 3.684 13.5417 4 13.725ZM20 13.725C20.3 13.5417 20.5417 13.3 20.725 13C20.9083 12.7 21 12.3667 21 12C21 11.65 20.9083 11.325 20.725 11.025C20.5417 10.725 20.3 10.4833 20 10.3V13.725ZM12 11.5C12.7167 11.5 13.4293 11.4583 14.138 11.375C14.8467 11.2917 15.5507 11.1583 16.25 10.975C16.5333 10.8917 16.7417 10.7333 16.875 10.5C17.0083 10.2667 17.0333 10.0167 16.95 9.75001C16.8667 9.48334 16.7083 9.27934 16.475 9.13801C16.2417 8.99667 15.9917 8.96734 15.725 9.05001C15.1083 9.21667 14.4917 9.33334 13.875 9.40001C13.2583 9.46667 12.6333 9.50001 12 9.50001C11.3667 9.50001 10.7373 9.46667 10.112 9.40001C9.48667 9.33334 8.866 9.21667 8.25 9.05001C7.98333 8.96667 7.73333 8.99167 7.5 9.12501C7.26667 9.25834 7.10833 9.46667 7.025 9.75001C6.94167 10.0167 6.96667 10.2667 7.1 10.5C7.23333 10.7333 7.44167 10.8917 7.725 10.975C8.425 11.1583 9.129 11.2917 9.837 11.375C10.545 11.4583 11.266 11.5 12 11.5Z" fill="white"/>
</svg>
