<svg width="70" height="70" viewBox="0 0 70 70" fill="none" xmlns="http://www.w3.org/2000/svg">
<path d="M54.6875 10.9375H53.5708C53.5817 10.7559 53.5938 10.5733 53.5938 10.3906C53.5938 8.87469 54.1155 7.38828 55.0627 6.20484L57.7292 2.87109L56.0208 1.50391L53.3531 4.83766C52.0986 6.40719 51.4062 8.38031 51.4062 10.3906C51.4062 11.9066 50.8845 13.393 49.9373 14.5764L47.7083 17.3622C47.1253 17.0592 46.4942 16.8197 45.8248 16.6578L47.3014 14.8116C48.5373 13.2661 49.2188 11.3247 49.2188 9.34609V9.11422C49.2188 7.70328 49.6847 6.30547 50.5312 5.17672L52.2812 2.84375L50.5312 1.53125L48.7812 3.86422C47.8723 5.075 47.3113 6.52203 47.1198 8.02156C43.5542 6.36781 39.3181 5.46875 35 5.46875C30.6819 5.46875 26.4458 6.36781 22.8791 8.02156C22.6877 6.52203 22.1266 5.07609 21.2177 3.86531L19.4688 1.53125L17.7188 2.84375L19.4688 5.17891C20.3153 6.30547 20.7812 7.70437 20.7812 9.11531V9.34719C20.7812 11.3269 21.4627 13.2672 22.6986 14.8127L24.1752 16.6589C23.5047 16.8208 22.8736 17.0603 22.2917 17.3633L20.0627 14.5775C19.1155 13.393 18.5938 11.9066 18.5938 10.3906C18.5938 8.38031 17.9014 6.40719 16.6469 4.83766L13.9803 1.50391L12.2719 2.87109L14.9384 6.20484C15.8845 7.38828 16.4062 8.87469 16.4062 10.3906C16.4062 10.5733 16.4183 10.7559 16.4292 10.9375H15.3125C7.4725 10.9375 1.09375 17.3162 1.09375 25.1562V30.0902C1.09375 34.2038 2.48391 38.2583 5.01047 41.5056L5.29484 41.8709C7.52281 44.7344 8.75 48.312 8.75 51.9411V60.1562C8.75 64.9808 12.1855 68.9062 16.4062 68.9062C20.627 68.9062 24.0625 64.9808 24.0625 60.1562C24.0625 55.3317 20.627 51.4062 16.4062 51.4062C16.0344 51.4062 15.6713 51.4467 15.3125 51.5058V49.7536C15.3125 45.64 13.9223 41.5855 11.3958 38.3381L11.1114 37.9728C8.88344 35.1094 7.65625 31.5317 7.65625 27.9027V25.1562C7.65625 21.5327 10.1894 18.4964 13.5756 17.7067C13.2869 18.7097 13.125 19.7367 13.125 20.7812C13.125 27.6248 19.5727 33.4316 28.4375 35.3872V44.2969C28.4375 45.8248 27.9322 47.3397 27.0156 48.5614C25.8169 50.1605 25.1562 52.1423 25.1562 54.1406V54.938C25.1562 56.373 25.4964 57.8102 26.1373 59.0964L29.272 65.3658C30.3647 67.55 32.5598 68.9062 35 68.9062C37.4402 68.9062 39.6353 67.55 40.7269 65.3669L43.8616 59.0975C44.5036 57.8102 44.8438 56.373 44.8438 54.938V54.1406C44.8438 52.1423 44.1831 50.1605 42.9844 48.5614C42.0678 47.3397 41.5625 45.8248 41.5625 44.2969V35.3872C50.4273 33.4316 56.875 27.6248 56.875 20.7812C56.875 19.7367 56.7131 18.7097 56.4233 17.7056C59.8106 18.4953 62.3438 21.5327 62.3438 25.1562V27.9027C62.3438 31.5317 61.1166 35.1094 58.8886 37.9739L58.6042 38.3392C56.0777 41.5855 54.6875 45.6411 54.6875 49.7536V51.5058C54.3288 51.4467 53.9656 51.4062 53.5938 51.4062C49.373 51.4062 45.9375 55.3317 45.9375 60.1562C45.9375 64.9808 49.373 68.9062 53.5938 68.9062C57.8145 68.9062 61.25 64.9808 61.25 60.1562V51.9411C61.25 48.312 62.4772 44.7344 64.7052 41.8698L64.9895 41.5045C67.5161 38.2583 68.9062 34.2027 68.9062 30.0902V25.1562C68.9062 17.3162 62.5275 10.9375 54.6875 10.9375ZM43.75 18.5938C43.9939 18.5938 44.2269 18.6266 44.4631 18.6517C44.2837 19.3419 44.1317 20.0375 44.0213 20.7408C43.0763 20.6533 42.1466 20.3973 41.2978 19.973L40.9577 19.8034L39.9787 21.7602L40.3189 21.9297C41.4028 22.4722 42.5917 22.8003 43.7992 22.9152C43.7762 23.3264 43.75 23.7388 43.75 24.1533V25.1562H45.9375V24.1533C45.9375 22.4897 46.1541 20.8414 46.5686 19.2391C48.1491 20.0058 49.2188 21.3839 49.2188 22.9688C49.2188 25.3816 46.7655 27.3438 43.75 27.3438C40.7345 27.3438 38.2812 25.3816 38.2812 22.9688C38.2812 20.5559 40.7345 18.5938 43.75 18.5938ZM23.4314 19.2391C23.8459 20.8436 24.0625 22.4897 24.0625 24.1533V25.1562H26.25V24.1533C26.25 23.7388 26.2237 23.3264 26.2008 22.9152C27.4083 22.8003 28.5972 22.4722 29.6811 21.9297L30.0212 21.7602L29.0423 19.8034L28.7022 19.973C27.8545 20.3973 26.9238 20.6522 25.9788 20.7408C25.8683 20.0386 25.7162 19.343 25.5369 18.6517C25.7731 18.6266 26.0061 18.5938 26.25 18.5938C29.2655 18.5938 31.7188 20.5559 31.7188 22.9688C31.7188 25.3816 29.2655 27.3438 26.25 27.3438C23.2345 27.3438 20.7812 25.3816 20.7812 22.9688C20.7812 21.3839 21.8498 20.0069 23.4314 19.2391ZM21.875 60.1562C21.875 63.7755 19.4217 66.7188 16.4062 66.7188C13.3908 66.7188 10.9375 63.7755 10.9375 60.1562C10.9375 56.537 13.3908 53.5938 16.4062 53.5938C19.4217 53.5938 21.875 56.537 21.875 60.1562ZM5.46875 25.1562V27.9027C5.46875 32.0162 6.85891 36.0708 9.38547 39.3181L9.66984 39.6834C11.8978 42.5469 13.125 46.1245 13.125 49.7536V52.2627C12.3058 52.7089 11.5653 53.3116 10.9375 54.0444V51.9411C10.9375 47.8275 9.54734 43.773 7.02078 40.5256L6.73641 40.1603C4.50844 37.2969 3.28125 33.7192 3.28125 30.0902V25.1562C3.28125 18.5227 8.67891 13.125 15.3125 13.125H16.0409C15.4514 13.8403 14.9537 14.5841 14.5403 15.3519C9.47297 15.7478 5.46875 19.9894 5.46875 25.1562ZM28.0952 58.1186C27.603 57.1353 27.3438 56.035 27.3438 54.938V54.1406C27.3438 52.6127 27.8491 51.0978 28.7656 49.8761C29.9655 48.277 30.625 46.2962 30.625 44.2969V35.7853C31.6903 35.9373 32.7906 36.0161 33.9062 36.0555V44.8438V50.7555C33.9062 55.5352 33.0498 60.1989 31.3753 64.6341C31.3272 64.552 31.2736 64.4744 31.2298 64.388L28.0952 58.1186ZM33.0837 66.2517C33.8811 64.2709 34.5198 62.2475 35.0011 60.1902C35.4813 62.2464 36.12 64.2688 36.9173 66.2517C36.3344 66.5481 35.6847 66.7188 35 66.7188C34.3153 66.7188 33.6656 66.5481 33.0837 66.2517ZM41.2344 49.8761C42.1509 51.0978 42.6562 52.6127 42.6562 54.1406V54.938C42.6562 56.035 42.397 57.1353 41.9048 58.1175L38.7702 64.3869C38.7275 64.4733 38.6728 64.5509 38.6247 64.633C36.948 60.1902 36.0938 55.5308 36.0938 50.7555V44.8438V36.0555C37.2094 36.0161 38.3097 35.9373 39.375 35.7853V44.2969C39.375 46.2952 40.0356 48.277 41.2344 49.8761ZM35 33.9062C24.1445 33.9062 15.3125 28.0186 15.3125 20.7812C15.3125 18.6659 16.0891 16.6075 17.5492 14.7459C17.7844 15.1648 18.0513 15.5662 18.3531 15.9447L20.51 18.6408C19.3222 19.7969 18.5938 21.3095 18.5938 22.9688C18.5938 26.588 22.0292 29.5312 26.25 29.5312C30.4708 29.5312 33.9062 26.588 33.9062 22.9688C33.9062 19.5081 30.7617 16.6709 26.7958 16.4303L24.4081 13.4444C23.6972 12.5573 23.2367 11.4953 23.0573 10.3808C26.4797 8.62641 30.683 7.65625 35 7.65625C39.317 7.65625 43.5203 8.62641 46.9427 10.3808C46.7633 11.4953 46.3028 12.5573 45.5919 13.4444L43.2042 16.4303C39.2383 16.6709 36.0938 19.5081 36.0938 22.9688C36.0938 26.588 39.5292 29.5312 43.75 29.5312C47.9708 29.5312 51.4062 26.588 51.4062 22.9688C51.4062 21.3095 50.6778 19.7969 49.4889 18.6397L51.6458 15.9436C51.9477 15.5662 52.2145 15.1637 52.4497 14.7448C53.9109 16.6075 54.6875 18.667 54.6875 20.7812C54.6875 28.0186 45.8555 33.9062 35 33.9062ZM53.5938 66.7188C50.5783 66.7188 48.125 63.7755 48.125 60.1562C48.125 56.537 50.5783 53.5938 53.5938 53.5938C56.6092 53.5938 59.0625 56.537 59.0625 60.1562C59.0625 63.7755 56.6092 66.7188 53.5938 66.7188ZM66.7188 30.0902C66.7188 33.7192 65.4916 37.2969 63.2636 40.1614L62.9792 40.5267C60.4527 43.773 59.0625 47.8286 59.0625 51.9411V54.0444C58.4347 53.3116 57.6942 52.7089 56.875 52.2627V49.7536C56.875 46.1245 58.1022 42.5469 60.3302 39.6823L60.6145 39.317C63.1411 36.0708 64.5312 32.0152 64.5312 27.9027V25.1562C64.5312 19.9883 60.527 15.7478 55.4597 15.3519C55.0463 14.5852 54.5475 13.8403 53.9591 13.125H54.6875C61.3211 13.125 66.7188 18.5227 66.7188 25.1562V30.0902Z" fill="white"/>
</svg>
