<svg width="70" height="70" viewBox="0 0 70 70" fill="none" xmlns="http://www.w3.org/2000/svg">
<path fill-rule="evenodd" clip-rule="evenodd" d="M42.0755 22.7267L45.8613 35.5979C46.3054 37.1088 47.2268 38.4354 48.4875 39.3791C49.7483 40.3228 51.2807 40.833 52.8555 40.8333H61.2497C62.0232 40.8333 62.7651 40.5261 63.3121 39.9791C63.8591 39.4321 64.1663 38.6902 64.1663 37.9167C64.1663 37.1431 63.8591 36.4013 63.3121 35.8543C62.7651 35.3073 62.0232 35 61.2497 35H52.8555C52.5403 35.0002 52.2336 34.8983 51.9812 34.7095C51.7288 34.5208 51.5444 34.2553 51.4555 33.9529L46.3805 16.6921C45.1788 12.6 39.433 12.4717 38.0447 16.5025L26.0455 51.4208L21.3118 39.585C20.7704 38.2308 19.8354 37.0701 18.6276 36.2528C17.4198 35.4355 15.9947 34.9991 14.5363 35H8.74967C7.97613 35 7.23426 35.3073 6.68728 35.8543C6.1403 36.4013 5.83301 37.1431 5.83301 37.9167C5.83301 38.6902 6.1403 39.4321 6.68728 39.9791C7.23426 40.5261 7.97613 40.8333 8.74967 40.8333H14.5363C14.8281 40.8328 15.1133 40.9198 15.355 41.0831C15.5968 41.2464 15.7841 41.4784 15.8926 41.7492L22.0847 57.2308C23.5897 60.9963 28.968 60.8621 30.2834 57.0267L42.0755 22.7267Z" fill="white"/>
</svg>
