<svg width="24" height="24" viewBox="0 0 24 24" fill="none" xmlns="http://www.w3.org/2000/svg">
<g clip-path="url(#clip0_127_6565)">
<path d="M5.99979 12H17.9998M5.99979 17.1429H17.9998M21.4284 6.00003H2.57122C2.11656 6.00003 1.68053 6.18065 1.35904 6.50214C1.03755 6.82363 0.856934 7.25966 0.856934 7.71432V21.4286C0.856934 21.8833 1.03755 22.3193 1.35904 22.6408C1.68053 22.9623 2.11656 23.1429 2.57122 23.1429H21.4284C21.883 23.1429 22.3191 22.9623 22.6405 22.6408C22.962 22.3193 23.1426 21.8833 23.1426 21.4286V7.71432C23.1426 7.25966 22.962 6.82363 22.6405 6.50214C22.3191 6.18065 21.883 6.00003 21.4284 6.00003ZM8.57122 0.857178H15.4284C15.883 0.857178 16.3191 1.03779 16.6405 1.35928C16.962 1.68077 17.1426 2.11681 17.1426 2.57146V6.00003H6.85693V2.57146C6.85693 2.11681 7.03755 1.68077 7.35904 1.35928C7.68053 1.03779 8.11656 0.857178 8.57122 0.857178Z" stroke="white" stroke-width="1.71429" stroke-linecap="round" stroke-linejoin="round"/>
</g>
<defs>
<clipPath id="clip0_127_6565">
<rect width="24" height="24" fill="white"/>
</clipPath>
</defs>
</svg>
