<svg width="70" height="70" viewBox="0 0 70 70" fill="none" xmlns="http://www.w3.org/2000/svg">
<path d="M35.0001 14.5834C35.0035 13.4168 34.7736 12.2613 34.324 11.1849C33.8743 10.1085 33.2139 9.13281 32.3817 8.31532C31.5494 7.49784 30.5621 6.85503 29.4778 6.4247C28.3935 5.99437 27.2341 5.78521 26.0678 5.80952C24.9014 5.83383 23.7517 6.09112 22.6863 6.56626C21.6209 7.0414 20.6612 7.72479 19.8637 8.57624C19.0663 9.4277 18.4471 10.43 18.0427 11.5243C17.6383 12.6185 17.4568 13.7826 17.5088 14.948C15.7944 15.3888 14.2028 16.214 12.8545 17.361C11.5062 18.508 10.4366 19.9468 9.7267 21.5684C9.0168 23.19 8.68521 24.9518 8.75704 26.7206C8.82888 28.4893 9.30226 30.2185 10.1413 31.7771C8.66602 32.9757 7.5059 34.5166 6.7619 36.2657C6.01789 38.0148 5.71253 39.9193 5.87239 41.8134C6.03224 43.7074 6.65246 45.5338 7.67909 47.1335C8.70572 48.7332 10.1077 50.0578 11.763 50.9921C11.5586 52.5737 11.6806 54.1803 12.1214 55.7128C12.5623 57.2454 13.3126 58.6713 14.3261 59.9024C15.3396 61.1336 16.5948 62.1439 18.014 62.871C19.4333 63.5981 20.9866 64.0265 22.5779 64.1298C24.1693 64.2331 25.7649 64.009 27.2662 63.4714C28.7675 62.9339 30.1427 62.0942 31.3069 61.0044C32.471 59.9145 33.3993 58.5975 34.0345 57.1348C34.6698 55.6721 34.9984 54.0947 35.0001 52.5001V14.5834Z" stroke="white" stroke-width="7.5" stroke-linecap="round" stroke-linejoin="round"/>
<path d="M35 14.5834C34.9966 13.4168 35.2265 12.2613 35.6761 11.1849C36.1258 10.1085 36.7862 9.13281 37.6184 8.31532C38.4507 7.49784 39.438 6.85503 40.5223 6.4247C41.6066 5.99437 42.766 5.78521 43.9323 5.80952C45.0987 5.83383 46.2484 6.09112 47.3138 6.56626C48.3792 7.0414 49.3389 7.72479 50.1364 8.57624C50.9338 9.4277 51.553 10.43 51.9574 11.5243C52.3618 12.6185 52.5433 13.7826 52.4913 14.948C54.2057 15.3888 55.7973 16.214 57.1456 17.361C58.4939 18.508 59.5635 19.9468 60.2734 21.5684C60.9833 23.19 61.3149 24.9518 61.2431 26.7206C61.1712 28.4893 60.6979 30.2185 59.8588 31.7771C61.3341 32.9757 62.4942 34.5166 63.2382 36.2657C63.9822 38.0148 64.2876 39.9193 64.1277 41.8134C63.9679 43.7074 63.3477 45.5338 62.321 47.1335C61.2944 48.7332 59.8924 50.0578 58.2371 50.9921C58.4415 52.5737 58.3195 54.1803 57.8787 55.7128C57.4379 57.2454 56.6875 58.6713 55.674 59.9024C54.6605 61.1336 53.4053 62.1439 51.9861 62.871C50.5668 63.5981 49.0135 64.0265 47.4222 64.1298C45.8309 64.2331 44.2353 64.009 42.7339 63.4714C41.2326 62.9339 39.8574 62.0942 38.6932 61.0044C37.5291 59.9145 36.6008 58.5975 35.9656 57.1348C35.3303 55.6721 35.0017 54.0947 35 52.5001V14.5834Z" stroke="white" stroke-width="7.5" stroke-linecap="round" stroke-linejoin="round"/>
<path d="M43.7503 37.9167C41.3016 37.0553 39.1634 35.4872 37.6059 33.4105C36.0484 31.3339 35.1417 28.842 35.0003 26.2501C34.859 28.842 33.9523 31.3339 32.3948 33.4105C30.8373 35.4872 28.6991 37.0553 26.2503 37.9167M51.3308 18.9584C52.0367 17.7351 52.4359 16.3591 52.4945 14.948M17.5091 14.948C17.5668 16.3589 17.9651 17.7349 18.6699 18.9584M10.1416 31.7801C10.6752 31.3455 11.2462 30.959 11.8479 30.6251M58.1529 30.6251C58.7546 30.959 59.3255 31.3455 59.8591 31.7801M17.5004 52.5001C15.4903 52.501 13.514 51.9826 11.7633 50.9951M58.2374 50.9951C56.4867 51.9826 54.5104 52.501 52.5003 52.5001" stroke="white" stroke-width="7.5" stroke-linecap="round" stroke-linejoin="round"/>
</svg>
