<svg width="70" height="70" viewBox="0 0 70 70" fill="none" xmlns="http://www.w3.org/2000/svg">
<path d="M5.83301 23.3333C5.83301 23.3333 18.8909 8.75 34.9997 8.75C51.1084 8.75 64.1663 23.3333 64.1663 23.3333" stroke="white" stroke-width="5.625" stroke-linecap="round" stroke-linejoin="round"/>
<path d="M62.8363 38.048C63.723 39.2905 64.1663 39.9147 64.1663 40.8334C64.1663 41.7551 63.723 42.3763 62.8363 43.6188C58.8522 49.2072 48.6759 61.2501 34.9997 61.2501C21.3205 61.2501 11.1472 49.2042 7.16301 43.6188C6.27634 42.3763 5.83301 41.7522 5.83301 40.8334C5.83301 39.9117 6.27634 39.2905 7.16301 38.048C11.1472 32.4597 21.3234 20.4167 34.9997 20.4167C48.6788 20.4167 58.8522 32.4626 62.8363 38.048Z" stroke="white" stroke-width="5.625" stroke-linecap="round" stroke-linejoin="round"/>
<path d="M43.75 40.8333C43.75 38.5126 42.8281 36.287 41.1872 34.6461C39.5462 33.0051 37.3206 32.0833 35 32.0833C32.6794 32.0833 30.4538 33.0051 28.8128 34.6461C27.1719 36.287 26.25 38.5126 26.25 40.8333C26.25 43.1539 27.1719 45.3795 28.8128 47.0204C30.4538 48.6614 32.6794 49.5833 35 49.5833C37.3206 49.5833 39.5462 48.6614 41.1872 47.0204C42.8281 45.3795 43.75 43.1539 43.75 40.8333Z" stroke="white" stroke-width="5.625" stroke-linecap="round" stroke-linejoin="round"/>
</svg>
