<svg width="70" height="70" viewBox="0 0 70 70" fill="none" xmlns="http://www.w3.org/2000/svg">
<path d="M17.9367 66.6563C17.4843 66.6563 17.1172 66.2892 17.1172 65.8368V56.2431C17.1172 55.7907 17.4843 55.4236 17.9367 55.4236C18.3891 55.4236 18.7562 55.7907 18.7562 56.2431V65.8368C18.7562 66.2892 18.3891 66.6563 17.9367 66.6563Z" fill="white"/>
<path d="M52.1388 66.6563C51.6864 66.6563 51.3193 66.2892 51.3193 65.8368V56.2431C51.3193 55.7907 51.6864 55.4236 52.1388 55.4236C52.5913 55.4236 52.9584 55.7907 52.9584 56.2431V65.8368C52.9584 66.2892 52.5913 66.6563 52.1388 66.6563Z" fill="white"/>
<path d="M59.1786 66.6563H10.8957C9.75178 66.6563 8.82129 65.7244 8.82129 64.5791V52.9039C8.82129 49.0923 11.2201 45.6407 14.7926 44.3147C14.804 44.3104 14.814 44.3076 14.8254 44.3033L28.1751 39.9838V36.1523C28.1751 35.6998 28.5422 35.3328 28.9947 35.3328C29.4471 35.3328 29.8142 35.6998 29.8142 36.1523V40.5614C29.8156 40.6212 29.8099 40.6795 29.7985 40.7378C29.7758 40.8545 29.7288 40.9626 29.6619 41.0565C29.5908 41.1561 29.4969 41.2401 29.3859 41.3013C29.3361 41.3283 29.2849 41.3496 29.2294 41.3667L15.3475 45.8584C12.4237 46.9511 10.4617 49.7809 10.4617 52.9039V64.5791C10.4617 64.821 10.6567 65.0173 10.8971 65.0173H59.1814C59.4219 65.0173 59.6168 64.821 59.6168 64.5791V52.9039C59.6168 49.7795 57.6534 46.9496 54.731 45.8584L40.8491 41.3681C40.7922 41.3511 40.7382 41.3283 40.6869 41.2998C40.5802 41.2401 40.4892 41.1604 40.4209 41.0637C40.3512 40.9683 40.3028 40.8574 40.2786 40.7378C40.2672 40.6809 40.263 40.6226 40.2644 40.5628V36.1836C40.2644 35.7311 40.6315 35.3641 41.0839 35.3641C41.5363 35.3641 41.9034 35.7311 41.9034 36.1836V39.9852L55.2532 44.3033C55.2646 44.3076 55.2745 44.3104 55.2859 44.3147C58.8571 45.6393 61.2573 49.0909 61.2573 52.9039V64.5791C61.253 65.7244 60.3225 66.6563 59.1786 66.6563Z" fill="white"/>
<path d="M35.0361 38.9921C29.1089 38.9921 24.2345 34.1704 24.1719 28.2432V21.8478C24.1719 21.3954 24.5389 21.0283 24.9914 21.0283H45.0851C45.5375 21.0283 45.9046 21.3954 45.9046 21.8478V28.2346C45.8392 34.1704 40.9648 38.9921 35.0361 38.9921ZM25.8109 22.6673V28.2346C25.865 33.2584 30.0038 37.3531 35.0375 37.3531C40.0713 37.3531 44.2115 33.2584 44.2656 28.2261V22.6673H25.8109Z" fill="white"/>
<path d="M47.0111 22.747C46.5587 22.747 46.1916 22.38 46.1916 21.9275V16.3489C46.1916 10.1968 41.1863 5.19298 35.0357 5.19298C28.8851 5.19298 23.8812 10.1983 23.8812 16.3489V21.9275C23.8812 22.38 23.5141 22.747 23.0617 22.747C22.6093 22.747 22.2422 22.38 22.2422 21.9275V16.3489C22.2422 9.29339 27.9816 3.55396 35.0357 3.55396C42.0912 3.55396 47.8306 9.29339 47.8306 16.3489V21.9275C47.8306 22.38 47.465 22.747 47.0111 22.747Z" fill="white"/>
<path d="M24.991 29.0556H23.7646C21.5522 29.0556 19.751 27.2558 19.751 25.0419C19.751 23.9692 20.1678 22.9619 20.9262 22.2035C21.454 21.6757 22.1128 21.3086 22.8341 21.1393C22.8483 21.135 22.8626 21.1308 22.8782 21.1279C23.1642 21.0625 23.463 21.0283 23.7646 21.0283H24.991C25.4435 21.0283 25.8105 21.3954 25.8105 21.8478C25.8105 22.3003 25.4435 22.6673 24.991 22.6673H23.7646C23.5996 22.6673 23.4388 22.6844 23.2837 22.7171C23.2695 22.7214 23.2538 22.7257 23.2396 22.7285C22.8042 22.8253 22.4059 23.0444 22.0857 23.3631C21.6376 23.8112 21.39 24.4074 21.39 25.0419C21.39 26.3509 22.4557 27.4165 23.7646 27.4165H24.991C25.4435 27.4165 25.8105 27.7836 25.8105 28.236C25.8105 28.6885 25.4435 29.0556 24.991 29.0556Z" fill="white"/>
<path d="M30.1958 30.9763C30.0962 30.9763 29.9952 30.9578 29.8971 30.9194C27.3247 29.9092 25.5306 25.695 24.4052 22.6133C24.3383 22.4312 24.27 22.2448 24.2487 22.1964C24.0538 21.7881 24.2288 21.3015 24.6371 21.1066C25.0454 20.9116 25.5363 21.0881 25.7298 21.4964C25.7753 21.5931 25.8251 21.7283 25.9432 22.0513C27.5153 26.3551 29.0462 28.8251 30.4946 29.3942C30.9158 29.5592 31.1235 30.0358 30.9584 30.457C30.8318 30.7785 30.5231 30.9763 30.1958 30.9763Z" fill="white"/>
<path d="M46.3086 29.0556H45.0836C44.6312 29.0556 44.2641 28.6885 44.2641 28.2361C44.2641 27.7836 44.6312 27.4166 45.0836 27.4166H46.3086C47.6176 27.4166 48.6832 26.3509 48.6832 25.042C48.6832 24.4074 48.4357 23.8113 47.9875 23.3631C47.6674 23.0444 47.2704 22.8239 46.8351 22.7286C46.6615 22.6873 46.4879 22.6688 46.3072 22.6688H45.0822C44.6298 22.6688 44.2627 22.3017 44.2627 21.8493C44.2627 21.3969 44.6298 21.0298 45.0822 21.0298H46.3086C46.6145 21.0298 46.9147 21.0639 47.2007 21.1308C47.9292 21.2916 48.6064 21.6643 49.147 22.205C49.9054 22.9633 50.3222 23.9706 50.3222 25.0434C50.3222 27.2558 48.5225 29.0556 46.3086 29.0556Z" fill="white"/>
<path d="M39.8771 30.9764C39.5498 30.9764 39.2411 30.7786 39.1145 30.4557C38.9494 30.0345 39.1557 29.5593 39.5769 29.3929C41.0253 28.8238 42.5576 26.3524 44.1297 22.05C44.2478 21.727 44.2976 21.5919 44.3431 21.4965C44.5381 21.0882 45.0275 20.9146 45.4358 21.1095C45.8427 21.303 46.0177 21.791 45.8257 22.198C45.8043 22.2478 45.736 22.4341 45.6706 22.6134C44.5452 25.6951 42.7496 29.9093 40.1773 30.9195C40.0777 30.9579 39.9767 30.9764 39.8771 30.9764Z" fill="white"/>
<path d="M40.4422 37.4158C39.9897 37.4158 39.6227 37.0488 39.6227 36.5963V31.3591C39.6227 30.9479 39.2869 30.6122 38.8757 30.6122H31.1985C30.7873 30.6122 30.4515 30.9479 30.4515 31.3591V36.5963C30.4515 37.0488 30.0845 37.4158 29.632 37.4158C29.1796 37.4158 28.8125 37.0488 28.8125 36.5963V31.3591C28.8125 30.0431 29.8824 28.9731 31.1985 28.9731H38.8757C40.1918 28.9731 41.2617 30.0431 41.2617 31.3591V36.5963C41.2617 37.0502 40.8946 37.4158 40.4422 37.4158Z" fill="white"/>
<path d="M35.0372 20.7709C32.5986 20.7709 30.6152 18.7876 30.6152 16.349C30.6152 13.9103 32.5986 11.927 35.0372 11.927C37.4758 11.927 39.4591 13.9103 39.4591 16.349C39.4591 18.7876 37.4758 20.7709 35.0372 20.7709ZM35.0372 13.5674C33.5034 13.5674 32.2543 14.8152 32.2543 16.3504C32.2543 17.8855 33.502 19.1333 35.0372 19.1333C36.5723 19.1333 37.8201 17.8855 37.8201 16.3504C37.8201 14.8152 36.5709 13.5674 35.0372 13.5674Z" fill="white"/>
<path d="M35.0375 48.3753C34.7999 48.3753 34.5737 48.2715 34.4186 48.0922L28.3747 41.1178C28.0787 40.7763 28.1157 40.2584 28.4572 39.9611C28.7987 39.6652 29.3165 39.7022 29.6139 40.0436L35.0389 46.3038L40.4639 40.045C40.7598 39.7036 41.2777 39.6666 41.6206 39.9625C41.9621 40.2585 41.9991 40.7763 41.7031 41.1192L35.6592 48.0936C35.5013 48.2715 35.2751 48.3753 35.0375 48.3753Z" fill="white"/>
<path d="M35.0373 66.6565C34.5848 66.6565 34.2178 66.2894 34.2178 65.8369V47.5558C34.2178 47.1034 34.5848 46.7363 35.0373 46.7363C35.4897 46.7363 35.8568 47.1034 35.8568 47.5558V65.8369C35.8568 66.2894 35.4897 66.6565 35.0373 66.6565Z" fill="white"/>
<path d="M37.2428 33.4691H32.8322C32.3798 33.4691 32.0127 33.102 32.0127 32.6496C32.0127 32.1972 32.3798 31.8301 32.8322 31.8301H37.2428C37.6952 31.8301 38.0623 32.1972 38.0623 32.6496C38.0623 33.102 37.6952 33.4691 37.2428 33.4691Z" fill="white"/>
<path d="M37.2428 36.0128H32.8322C32.3798 36.0128 32.0127 35.6457 32.0127 35.1933C32.0127 34.7409 32.3798 34.3738 32.8322 34.3738H37.2428C37.6952 34.3738 38.0623 34.7409 38.0623 35.1933C38.0623 35.6457 37.6952 36.0128 37.2428 36.0128Z" fill="white"/>
<path d="M47.0115 18.4716H38.3953C37.9428 18.4716 37.5758 18.1046 37.5758 17.6521C37.5758 17.1997 37.9428 16.8326 38.3953 16.8326H47.0115C47.464 16.8326 47.831 17.1997 47.831 17.6521C47.831 18.1046 47.4654 18.4716 47.0115 18.4716ZM31.6784 18.4716H23.0607C22.6083 18.4716 22.2412 18.1046 22.2412 17.6521C22.2412 17.1997 22.6083 16.8326 23.0607 16.8326H31.6784C32.1308 16.8326 32.4979 17.1997 32.4979 17.6521C32.4979 18.1046 32.1308 18.4716 31.6784 18.4716ZM46.9418 15.8666H38.3967C37.9443 15.8666 37.5772 15.4995 37.5772 15.0471C37.5772 14.5946 37.9443 14.2275 38.3967 14.2275H46.9418C47.3943 14.2275 47.7613 14.5946 47.7613 15.0471C47.7613 15.4995 47.3943 15.8666 46.9418 15.8666ZM31.6784 15.8666H23.1319C22.6794 15.8666 22.3123 15.4995 22.3123 15.0471C22.3123 14.5946 22.6794 14.2275 23.1319 14.2275H31.6784C32.1308 14.2275 32.4979 14.5946 32.4979 15.0471C32.4979 15.4995 32.1308 15.8666 31.6784 15.8666Z" fill="white"/>
<path d="M45.4401 52.5184H39.6779C39.2255 52.5184 38.8584 52.1513 38.8584 51.6989C38.8584 51.2465 39.2255 50.8794 39.6779 50.8794H45.4401C45.8925 50.8794 46.2596 51.2465 46.2596 51.6989C46.2596 52.1513 45.8925 52.5184 45.4401 52.5184Z" fill="white"/>
</svg>
