<svg width="70" height="70" viewBox="0 0 70 70" fill="none" xmlns="http://www.w3.org/2000/svg">
<path d="M23.3337 20.4166C22.5073 20.4166 21.8151 20.1366 21.257 19.5766C20.6989 19.0166 20.4189 18.3244 20.417 17.4999C20.4151 16.6755 20.6951 15.9833 21.257 15.4233C21.8189 14.8633 22.5112 14.5833 23.3337 14.5833H32.0837V8.74993C32.0837 7.92354 32.3637 7.23132 32.9237 6.67326C33.4837 6.11521 34.1759 5.83521 35.0003 5.83326C35.8248 5.83132 36.518 6.11132 37.0799 6.67326C37.6419 7.23521 37.9209 7.92743 37.917 8.74993V14.5833H46.667C47.4934 14.5833 48.1866 14.8633 48.7466 15.4233C49.3066 15.9833 49.5856 16.6755 49.5837 17.4999C49.5817 18.3244 49.3017 19.0176 48.7437 19.5795C48.1856 20.1415 47.4934 20.4205 46.667 20.4166H23.3337ZM26.2503 64.1666C24.6462 64.1666 23.2734 63.5959 22.132 62.4545C20.9906 61.3131 20.4189 59.9394 20.417 58.3333V32.0833C20.417 29.6527 21.2677 27.5867 22.9691 25.8853C24.6705 24.184 26.7364 23.3333 29.167 23.3333H40.8337C43.2642 23.3333 45.3302 24.184 47.0316 25.8853C48.733 27.5867 49.5837 29.6527 49.5837 32.0833V58.3333C49.5837 59.9374 49.013 61.3112 47.8716 62.4545C46.7302 63.5978 45.3564 64.1685 43.7503 64.1666H26.2503ZM26.2503 58.3333H43.7503V32.0833C43.7503 31.2569 43.4703 30.5647 42.9103 30.0066C42.3503 29.4485 41.6581 29.1685 40.8337 29.1666H29.167C28.3406 29.1666 27.6484 29.4466 27.0903 30.0066C26.5323 30.5666 26.2523 31.2588 26.2503 32.0833V34.9999H32.0837C32.9101 34.9999 33.6033 35.2799 34.1633 35.8399C34.7233 36.3999 35.0023 37.0922 35.0003 37.9166C34.9984 38.741 34.7184 39.4342 34.1603 39.9962C33.6023 40.5581 32.9101 40.8372 32.0837 40.8333H26.2503V46.6666H32.0837C32.9101 46.6666 33.6033 46.9466 34.1633 47.5066C34.7233 48.0666 35.0023 48.7588 35.0003 49.5833C34.9984 50.4077 34.7184 51.1009 34.1603 51.6628C33.6023 52.2248 32.9101 52.5038 32.0837 52.4999H26.2503V58.3333Z" fill="white"/>
</svg>
