<svg width="70" height="70" viewBox="0 0 70 70" fill="none" xmlns="http://www.w3.org/2000/svg">
<path d="M32.8125 6.5625V10.9375H28.4375V15.3125H32.8125V19.6875H37.1875V15.3125H41.5625V10.9375H37.1875V6.5625H32.8125ZM13.125 10.9375V61.25H32.8125V54.6875H37.1875V61.25H56.875V10.9375H45.9375V15.3125H52.5V56.875H41.5625V50.3125H28.4375V56.875H17.5V15.3125H24.0625V10.9375H13.125ZM24.0625 24.0625V28.4375H28.4375V24.0625H24.0625ZM32.8125 24.0625V28.4375H37.1875V24.0625H32.8125ZM41.5625 24.0625V28.4375H45.9375V24.0625H41.5625ZM24.0625 32.8125V37.1875H28.4375V32.8125H24.0625ZM32.8125 32.8125V37.1875H37.1875V32.8125H32.8125ZM41.5625 32.8125V37.1875H45.9375V32.8125H41.5625ZM24.0625 41.5625V45.9375H28.4375V41.5625H24.0625ZM32.8125 41.5625V45.9375H37.1875V41.5625H32.8125ZM41.5625 41.5625V45.9375H45.9375V41.5625H41.5625Z" fill="white"/>
</svg>
