<svg width="70" height="70" viewBox="0 0 70 70" fill="none" xmlns="http://www.w3.org/2000/svg">
<path fill-rule="evenodd" clip-rule="evenodd" d="M17.4885 56.782C17.6812 57.6296 17.4489 58.5559 16.7917 59.2132C16.7917 59.2132 7.85997 68.1448 7.8612 68.1437C6.84785 69.1605 5.1835 69.1618 4.16658 68.1448L2.22332 66.2016C1.20681 65.1849 1.20681 63.5247 2.22332 62.5082L11.1549 53.5766C11.8119 52.9196 12.7392 52.6875 13.5862 52.8795L15.6641 50.8017C14.2134 48.6137 13.3683 45.9893 13.3683 43.1676C13.3683 38.5229 15.658 34.4125 19.17 31.9039C18.6868 30.0381 19.1276 28.2816 19.9251 26.9401C18.2035 24.6246 17.4749 21.3784 19.5924 18.4462C17.7569 13.939 19.1876 9.74355 21.0466 7.48571C21.7371 6.64681 22.5031 6.07308 23.2045 5.78237C23.3961 4.92879 23.8745 4.16839 24.5714 3.52302C25.7233 2.45628 27.5091 1.707 29.4051 1.38624C31.2733 1.07014 33.2392 1.16787 34.7691 1.71496C35.464 1.96353 36.0728 2.3053 36.5644 2.73436C36.7059 2.62826 36.8592 2.53053 37.0235 2.44173C37.7833 2.03051 38.7928 1.80871 39.8166 1.81488C41.0585 1.8223 42.2919 2.18081 43.1621 2.83812C43.3756 2.64775 43.6183 2.47549 43.8865 2.323C44.7969 1.80528 46.0205 1.51196 47.2591 1.4679C48.4871 1.42426 49.7245 1.62451 50.6722 2.04245C51.0561 2.21169 51.3953 2.41798 51.6808 2.6553C56.9666 -0.652547 62.5739 1.69671 64.1824 5.93528C67.3003 8.35055 68.4392 10.8852 68.532 13.1617C68.6165 15.2354 67.8199 17.1302 66.7253 18.606C68.5933 21.4264 67.8758 25.0049 66.3367 26.9603C67.9579 29.476 67.4057 32.121 66.4172 33.6138C69.2685 38.2647 67.8014 42.1713 65.8002 44.5089C64.7837 46.9274 63.3634 48.4072 61.751 49.2334C59.4949 50.3897 56.8123 50.259 54.175 49.451C53.4117 50.22 52.5893 50.5293 51.5777 50.6168C51.1568 51.336 50.2281 53.2642 49.818 56.8176C49.8081 56.9031 49.7867 56.9871 49.7544 57.067C49.4223 57.8898 48.6237 58.4287 47.7364 58.4287H45.5179C44.3912 58.4287 43.4535 57.5693 43.3511 56.4546C42.9334 53.8291 42.095 48.0893 42.0644 47.8796C42.02 47.605 41.7413 45.5506 43.0357 43.8152C43.8969 42.6603 45.4653 41.5897 48.3886 41.422C48.7079 41.3023 49.304 41.0883 50.0645 41.068C51.5798 38.5378 53.8887 38.0974 55.7316 38.3568C55.3661 36.7553 55.6093 34.8457 57.1236 33.3813C56.2765 31.8401 55.8952 29.2602 57.259 27.0454C55.2811 25.0668 54.3833 21.3115 56.883 18.4898C56.3505 17.5849 56.1906 16.5497 56.2798 15.5177C56.3325 14.9075 56.4752 14.3006 56.671 13.7315C56.2887 13.8037 55.8914 13.8471 55.4873 13.8554C54.1316 13.884 52.7134 13.5296 51.5533 12.6247C51.1364 12.948 50.6349 13.2123 50.0757 13.4083C48.7936 13.858 47.2033 13.9562 45.8204 13.7006C44.7163 13.4965 43.7601 13.053 43.1091 12.4307C42.2799 13.0416 41.1199 13.4018 39.9318 13.4319C38.6585 13.4641 37.4092 13.1158 36.5521 12.4556C36.3522 12.6127 36.1284 12.757 35.8834 12.8866C35.0134 13.3466 33.8581 13.6307 32.6923 13.713C31.861 13.7716 31.0264 13.7278 30.2902 13.5872C30.3142 13.7356 30.3334 13.8896 30.3467 14.0494C30.4447 15.2263 30.2288 16.7331 29.1792 18.5927C30.7283 21.4644 30.3208 24.2957 28.7611 26.921C29.238 27.8631 29.5 28.7398 29.6113 29.5445C36.1013 30.6852 41.033 36.3508 41.033 43.1676C41.033 50.8065 34.8396 56.9999 27.2007 56.9999C24.3789 56.9999 21.7544 56.1549 19.5666 54.704L17.4885 56.782ZM15.2275 53.9557L16.4125 55.1406L18.0301 53.5229C17.6118 53.1522 17.2159 52.7564 16.8452 52.338L15.2275 53.9557ZM20.9222 30.8389C22.8065 29.8775 24.9402 29.3352 27.2007 29.3352C27.3415 29.3352 27.4818 29.3372 27.6217 29.3415C27.4817 28.7311 27.2247 28.0722 26.8179 27.3661C26.6371 27.0524 26.6481 26.6635 26.8466 26.3605C28.3336 24.0882 28.8095 21.6073 27.249 19.0928C27.0559 18.7815 27.0564 18.3876 27.2507 18.077C28.2574 16.4663 28.5138 15.1949 28.4317 14.2087C28.3516 13.2449 27.9561 12.5731 27.7321 12.1488C27.4972 11.7034 27.6459 11.1521 28.0732 10.8854C28.5004 10.6187 29.0609 10.7271 29.3579 11.1338C29.5009 11.3297 29.769 11.4487 30.081 11.5538C30.7692 11.7858 31.6666 11.8591 32.5571 11.7962C33.4424 11.7336 34.3245 11.5372 34.9852 11.1879C35.3015 11.0206 35.5672 10.8298 35.6986 10.5727C35.8639 10.2489 36.1979 10.0462 36.5613 10.0489C36.9249 10.0517 37.2559 10.2595 37.4163 10.5857C37.5693 10.8969 37.8832 11.1 38.2468 11.2472C38.7304 11.443 39.3078 11.5255 39.883 11.511C40.462 11.4963 41.0409 11.3829 41.5228 11.1643C41.8912 10.9971 42.2071 10.7774 42.3564 10.4602C42.5274 10.0967 42.9065 9.87806 43.3067 9.91196C43.707 9.94586 44.0438 10.225 44.1514 10.612C44.2302 10.8958 44.4509 11.1095 44.7266 11.2875C45.1189 11.5408 45.623 11.71 46.1696 11.811C47.2322 12.0074 48.4546 11.9406 49.4397 11.5951C49.9867 11.4032 50.462 11.1341 50.7355 10.7381C50.9035 10.4949 51.1743 10.3425 51.4694 10.3251C51.7645 10.3077 52.0512 10.4271 52.2467 10.6489C53.1041 11.6215 54.3142 11.9582 55.4469 11.9343C56.5801 11.9105 57.6552 11.5402 58.235 10.9942C58.612 10.6391 59.2026 10.6467 59.5703 11.0115C59.938 11.3763 59.9504 11.9669 59.5983 12.3467C59.1127 12.8706 58.546 13.8984 58.2984 15.0152C58.0756 16.0202 58.0983 17.1207 58.8511 17.9333C59.0272 18.1234 59.119 18.3765 59.1059 18.6352C59.0926 18.8939 58.9755 19.1365 58.7809 19.3076C56.2757 21.5117 57.2802 24.8446 59.1041 26.0939C59.3292 26.248 59.4781 26.4906 59.5138 26.761C59.5493 27.0314 59.4684 27.3042 59.291 27.5115C57.6598 29.4164 58.2165 31.9655 59.1111 32.8899C59.3074 33.0925 59.4045 33.3713 59.3769 33.652C59.3494 33.9327 59.1999 34.1871 58.9681 34.3477C56.9337 35.7579 57.3489 38.1575 58.221 39.3218C58.4923 39.6841 58.4741 40.1866 58.1772 40.5282C57.8803 40.8697 57.3852 40.9578 56.9887 40.7396C55.8282 40.1008 52.9422 39.5247 51.4812 42.4815C51.299 42.8504 50.9017 43.0623 50.4938 43.0084C49.7178 42.9056 49.1232 43.2012 48.9121 43.2774C48.8214 43.3102 48.7262 43.3291 48.6298 43.3335C46.4316 43.4344 45.2133 44.1094 44.5761 44.9638C43.6961 46.1437 43.9581 47.5548 43.9581 47.5548C43.9606 47.5678 43.9627 47.5809 43.9646 47.5939C43.9646 47.5939 44.832 53.5371 45.2544 56.1875C45.2588 56.215 45.2619 56.2428 45.2639 56.2705C45.2735 56.4038 45.3844 56.5071 45.5179 56.5071H47.7364C47.8123 56.5071 47.8827 56.4734 47.9303 56.4175C48.5711 51.1536 50.2938 49.0809 50.2938 49.0809C50.4721 48.8589 50.7398 48.7274 51.0244 48.7217C51.8793 48.7051 52.5187 48.5182 53.1096 47.7534C53.362 47.4268 53.7947 47.2979 54.1846 47.4329C56.4978 48.2346 58.8883 48.5413 60.8747 47.5234C62.1754 46.8567 63.2758 45.6169 64.0825 43.6347C64.1234 43.5342 64.181 43.4413 64.2529 43.36C65.9593 41.4321 67.1695 38.0833 64.4433 34.1008C64.1829 33.7206 64.2293 33.2091 64.5538 32.8817C65.4715 31.9558 66.0723 29.5969 64.3522 27.495C64.0254 27.0956 64.0724 26.5094 64.4588 26.1672C65.945 24.8512 66.7532 21.5376 64.7778 19.2076C64.4714 18.8463 64.4742 18.3158 64.784 17.9576C66.0307 16.5165 67.0168 14.4287 66.4555 12.1389C66.0681 10.5586 64.9539 8.91138 62.7967 7.29534C62.6394 7.17743 62.5219 7.0141 62.4604 6.8273C61.2818 3.25428 56.4305 1.52802 52.0927 4.69587C51.8736 4.85577 51.5971 4.91575 51.3313 4.86071C51.0658 4.80581 50.8357 4.6411 50.698 4.40736C50.5417 4.14163 50.2461 3.95455 49.897 3.80069C49.1844 3.48637 48.2508 3.35543 47.3275 3.38824C46.5561 3.41569 45.7893 3.55871 45.1617 3.83171C44.6824 4.0402 44.2789 4.30867 44.1113 4.70726C43.9671 5.05053 43.6372 5.27961 43.265 5.29485C42.8928 5.31008 42.5454 5.10887 42.3734 4.77836C42.199 4.44318 41.8619 4.21602 41.472 4.05063C40.9748 3.83953 40.3868 3.73988 39.8052 3.73645C39.2263 3.73288 38.6516 3.82457 38.1782 4.01865C37.8423 4.15618 37.5514 4.32994 37.4245 4.60116C37.2738 4.92371 36.9572 5.13645 36.6016 5.15402C36.2459 5.17159 35.9098 4.9911 35.7281 4.68502C35.4043 4.13998 34.8205 3.77406 34.122 3.52426C32.8686 3.07612 31.2563 3.0219 29.7256 3.2809C28.4582 3.4953 27.2427 3.92518 26.3393 4.56122C25.5956 5.08485 25.0621 5.74175 25.0338 6.56267C25.0175 7.0362 24.6585 7.4271 24.1881 7.48351C23.9534 7.51165 23.701 7.64561 23.4361 7.83557C22.8997 8.22016 22.3577 8.83753 21.8944 9.617C20.6705 11.676 20.0256 14.849 21.5724 18.1817C21.7296 18.5202 21.6765 18.919 21.4363 19.2047C19.3848 21.6437 20.2545 24.4456 21.8386 26.2534C22.1383 26.5954 22.1571 27.1009 21.8834 27.4644C21.2356 28.3251 20.7682 29.5249 20.9222 30.8389ZM15.4329 56.8785L13.4889 54.9347L13.4884 54.934C13.221 54.6659 12.7819 54.6671 12.5137 54.9353L3.58214 63.8669C3.31354 64.1355 3.31354 64.5741 3.58214 64.8428L5.5254 66.7861C5.79359 67.0543 6.23267 67.0556 6.50073 66.7867L15.4329 57.8544C15.7015 57.5858 15.7015 57.1471 15.4329 56.8785ZM27.2007 31.2568C20.6229 31.2568 15.2899 36.5898 15.2899 43.1676C15.2899 49.7454 20.6229 55.0783 27.2007 55.0783C33.7784 55.0783 39.1114 49.7454 39.1114 43.1676C39.1114 36.5898 33.7784 31.2568 27.2007 31.2568ZM27.2007 53.5557C21.4773 53.5557 16.8124 48.8909 16.8124 43.1676C16.8124 37.4467 21.4773 32.7793 27.2007 32.7793C32.9215 32.7793 37.5888 37.4467 37.5888 43.1676C37.5888 48.8909 32.9215 53.5557 27.2007 53.5557ZM27.2007 51.6342C31.8632 51.6342 35.6673 47.8322 35.6673 43.1676C35.6673 38.5049 31.8632 34.7009 27.2007 34.7009C22.5359 34.7009 18.734 38.5049 18.734 43.1676C18.734 47.8322 22.5359 51.6342 27.2007 51.6342ZM34.5447 29.2589C34.5447 29.7891 34.1142 30.2197 33.5839 30.2197C33.0537 30.2197 32.6231 29.7891 32.6231 29.2589C32.6231 26.7089 34.9404 24.568 37.8713 24.568C39.2981 24.568 40.5863 25.0785 41.5261 25.8923C42.466 25.0785 43.7543 24.568 45.1811 24.568C48.112 24.568 50.4292 26.7089 50.4292 29.2589C50.4292 29.7891 49.9987 30.2197 49.4684 30.2197C48.9382 30.2197 48.5076 29.7891 48.5076 29.2589C48.5076 27.6909 46.9834 26.4896 45.1811 26.4896C43.9717 26.4896 42.9014 27.0279 42.3108 27.8637C42.1307 28.1184 41.8381 28.2699 41.5261 28.2699C41.2141 28.2699 40.9217 28.1184 40.7416 27.8637C40.1508 27.0279 39.0807 26.4896 37.8713 26.4896C36.069 26.4896 34.5447 27.6909 34.5447 29.2589ZM53.2032 22.4523C53.6363 22.7583 53.7393 23.3583 53.4334 23.7913C53.1273 24.2244 52.5272 24.3274 52.0942 24.0215C50.7945 23.1028 49.9077 21.4627 49.9077 19.582C49.9077 16.651 52.0485 14.3338 54.5984 14.3338C55.1288 14.3338 55.5592 14.7643 55.5592 15.2946C55.5592 15.8249 55.1288 16.2553 54.5984 16.2553C53.0306 16.2553 51.8293 17.7797 51.8293 19.582C51.8293 20.7913 52.3675 21.8615 53.2032 22.4523ZM33.1829 18.037C32.9146 17.5797 33.0679 16.9905 33.5253 16.7221C33.9826 16.4537 34.5718 16.6071 34.8402 17.0645C35.5343 18.2469 36.7756 19.0446 38.1966 19.0446C40.3884 19.0446 42.145 17.1586 42.145 14.8623C42.145 14.3321 42.5756 13.9016 43.1058 13.9016C43.6361 13.9016 44.0666 14.3321 44.0666 14.8623C44.0666 18.2432 41.4237 20.9662 38.1966 20.9662C36.0793 20.9662 34.217 19.799 33.1829 18.037ZM50.2531 35.2848C50.559 35.7178 50.4559 36.3179 50.0229 36.624C49.5899 36.9299 48.9898 36.8268 48.6838 36.3938C48.3934 35.983 47.8626 35.7284 47.2682 35.7284C46.4072 35.7284 45.6479 36.2639 45.6479 37.0131C45.6479 37.5433 45.2175 37.9739 44.6871 37.9739C44.1569 37.9739 43.7263 37.5433 43.7263 37.0131C43.7263 35.2823 45.2788 33.8068 47.2682 33.8068C48.534 33.8068 49.6347 34.41 50.2531 35.2848Z" fill="white"/>
</svg>
