<svg width="24" height="24" viewBox="0 0 24 24" fill="none" xmlns="http://www.w3.org/2000/svg">
<path fill-rule="evenodd" clip-rule="evenodd" d="M21.5 8.5C21.5 7.096 21.5 6.393 21.163 5.889C21.017 5.67053 20.8295 5.48296 20.611 5.337C20.17 5.042 19.577 5.005 18.496 5.001C18.4993 5.293 18.5007 5.59633 18.5 5.911V7.25H19.5C19.6989 7.25 19.8897 7.32902 20.0303 7.46967C20.171 7.61032 20.25 7.80109 20.25 8C20.25 8.19891 20.171 8.38968 20.0303 8.53033C19.8897 8.67098 19.6989 8.75 19.5 8.75H18.5V10.25H19.5C19.6989 10.25 19.8897 10.329 20.0303 10.4697C20.171 10.6103 20.25 10.8011 20.25 11C20.25 11.1989 20.171 11.3897 20.0303 11.5303C19.8897 11.671 19.6989 11.75 19.5 11.75H18.5V13.25H19.5C19.6989 13.25 19.8897 13.329 20.0303 13.4697C20.171 13.6103 20.25 13.8011 20.25 14C20.25 14.1989 20.171 14.3897 20.0303 14.5303C19.8897 14.671 19.6989 14.75 19.5 14.75H18.5V21.25H17V6C17 4.114 17 3.172 16.414 2.586C15.828 2 14.886 2 13 2H11C9.114 2 8.172 2 7.586 2.586C7 3.172 7 4.114 7 6V21.25H5.5V14.75H4.5C4.30109 14.75 4.11032 14.671 3.96967 14.5303C3.82902 14.3897 3.75 14.1989 3.75 14C3.75 13.8011 3.82902 13.6103 3.96967 13.4697C4.11032 13.329 4.30109 13.25 4.5 13.25H5.5V11.75H4.5C4.30109 11.75 4.11032 11.671 3.96967 11.5303C3.82902 11.3897 3.75 11.1989 3.75 11C3.75 10.8011 3.82902 10.6103 3.96967 10.4697C4.11032 10.329 4.30109 10.25 4.5 10.25H5.5V8.75H4.5C4.30109 8.75 4.11032 8.67098 3.96967 8.53033C3.82902 8.38968 3.75 8.19891 3.75 8C3.75 7.80109 3.82902 7.61032 3.96967 7.46967C4.11032 7.32902 4.30109 7.25 4.5 7.25H5.5V5.91C5.49933 5.59667 5.50067 5.29333 5.504 5C4.423 5.005 3.83 5.042 3.389 5.337C3.17053 5.48296 2.98296 5.67053 2.837 5.889C2.5 6.393 2.5 7.096 2.5 8.5V21.25H2C1.80109 21.25 1.61032 21.329 1.46967 21.4697C1.32902 21.6103 1.25 21.8011 1.25 22C1.25 22.1989 1.32902 22.3897 1.46967 22.5303C1.61032 22.671 1.80109 22.75 2 22.75H22C22.1989 22.75 22.3897 22.671 22.5303 22.5303C22.671 22.3897 22.75 22.1989 22.75 22C22.75 21.8011 22.671 21.6103 22.5303 21.4697C22.3897 21.329 22.1989 21.25 22 21.25H21.5V8.5ZM12 4.25C12.1989 4.25 12.3897 4.32902 12.5303 4.46967C12.671 4.61032 12.75 4.80109 12.75 5V6.25H14C14.1989 6.25 14.3897 6.32902 14.5303 6.46967C14.671 6.61032 14.75 6.80109 14.75 7C14.75 7.19891 14.671 7.38968 14.5303 7.53033C14.3897 7.67098 14.1989 7.75 14 7.75H12.75V9C12.75 9.19891 12.671 9.38968 12.5303 9.53033C12.3897 9.67098 12.1989 9.75 12 9.75C11.8011 9.75 11.6103 9.67098 11.4697 9.53033C11.329 9.38968 11.25 9.19891 11.25 9V7.75H10C9.80109 7.75 9.61032 7.67098 9.46967 7.53033C9.32902 7.38968 9.25 7.19891 9.25 7C9.25 6.80109 9.32902 6.61032 9.46967 6.46967C9.61032 6.32902 9.80109 6.25 10 6.25H11.25V5C11.25 4.80109 11.329 4.61032 11.4697 4.46967C11.6103 4.32902 11.8011 4.25 12 4.25ZM9.25 12C9.25 11.8011 9.32902 11.6103 9.46967 11.4697C9.61032 11.329 9.80109 11.25 10 11.25H14C14.1989 11.25 14.3897 11.329 14.5303 11.4697C14.671 11.6103 14.75 11.8011 14.75 12C14.75 12.1989 14.671 12.3897 14.5303 12.5303C14.3897 12.671 14.1989 12.75 14 12.75H10C9.80109 12.75 9.61032 12.671 9.46967 12.5303C9.32902 12.3897 9.25 12.1989 9.25 12ZM9.25 15C9.25 14.8011 9.32902 14.6103 9.46967 14.4697C9.61032 14.329 9.80109 14.25 10 14.25H14C14.1989 14.25 14.3897 14.329 14.5303 14.4697C14.671 14.6103 14.75 14.8011 14.75 15C14.75 15.1989 14.671 15.3897 14.5303 15.5303C14.3897 15.671 14.1989 15.75 14 15.75H10C9.80109 15.75 9.61032 15.671 9.46967 15.5303C9.32902 15.3897 9.25 15.1989 9.25 15ZM12 18.25C12.1989 18.25 12.3897 18.329 12.5303 18.4697C12.671 18.6103 12.75 18.8011 12.75 19V21.25H11.25V19C11.25 18.8011 11.329 18.6103 11.4697 18.4697C11.6103 18.329 11.8011 18.25 12 18.25Z" fill="#3D8E86"/>
</svg>
