<svg width="70" height="70" viewBox="0 0 70 70" fill="none" xmlns="http://www.w3.org/2000/svg">
<path d="M46.7578 19.5289L40.8898 21.875L46.7578 24.2184C47.0244 24.3261 47.2672 24.4853 47.4723 24.6868C47.6774 24.8884 47.8408 25.1284 47.9532 25.3931C48.0655 25.6578 48.1246 25.942 48.1271 26.2296C48.1297 26.5171 48.0755 26.8023 47.9678 27.0689C47.8601 27.3356 47.7009 27.5784 47.4993 27.7835C47.2978 27.9886 47.0578 28.1519 46.7931 28.2643C46.5284 28.3767 46.2441 28.4358 45.9566 28.4383C45.669 28.4408 45.3838 28.3866 45.1172 28.2789L35 24.2293L24.8828 28.2789C24.3444 28.4965 23.7415 28.4912 23.2069 28.2643C22.6723 28.0374 22.2498 27.6074 22.0322 27.0689C21.8147 26.5305 21.8199 25.9276 22.0468 25.3931C22.2737 24.8585 22.7037 24.4359 23.2422 24.2184L29.1102 21.875L23.2422 19.5289C22.9756 19.4212 22.7328 19.262 22.5277 19.0604C22.3226 18.8589 22.1592 18.6189 22.0468 18.3542C21.9345 18.0895 21.8754 17.8053 21.8729 17.5177C21.8703 17.2302 21.9245 16.9449 22.0322 16.6783C22.14 16.4117 22.2991 16.1689 22.5007 15.9638C22.7022 15.7587 22.9422 15.5953 23.2069 15.483C23.4716 15.3706 23.7559 15.3115 24.0434 15.309C24.331 15.3065 24.6162 15.3606 24.8828 15.4684L35 19.518L45.1172 15.4684C45.6557 15.2508 46.2585 15.2561 46.7931 15.483C47.3277 15.7099 47.7502 16.1399 47.9678 16.6783C48.1853 17.2168 48.1801 17.8196 47.9532 18.3542C47.7263 18.8888 47.2963 19.3113 46.7578 19.5289ZM61.25 21.8066C61.25 33.4879 59.0625 42.4238 57.2332 47.8598C54.8461 54.9145 51.5922 60.2984 48.3055 62.6254C47.6801 63.0753 46.9451 63.3486 46.1777 63.4164C45.4103 63.4842 44.6387 63.3442 43.9441 63.0109C43.2399 62.6786 42.6364 62.1654 42.1954 61.5236C41.7544 60.8818 41.4917 60.1344 41.434 59.3578C41.2016 56.2133 40.0531 45.9375 35 45.9375C29.9469 45.9375 28.7984 56.216 28.566 59.366C28.484 60.4713 27.9879 61.505 27.1768 62.2603C26.3657 63.0157 25.2994 63.4371 24.191 63.4402C23.295 63.439 22.4219 63.1569 21.6945 62.6336C18.4133 60.3012 15.1539 54.9172 12.7668 47.868C10.9375 42.4238 8.75 33.4879 8.75 21.8066C8.76808 17.7574 10.3893 13.8801 13.259 11.0232C16.1287 8.16635 20.0132 6.56246 24.0625 6.5625H45.9375C49.9868 6.56246 53.8713 8.16635 56.741 11.0232C59.6107 13.8801 61.2319 17.7574 61.25 21.8066ZM56.875 21.8066C56.8569 18.9177 55.6966 16.1532 53.6474 14.1168C51.5982 12.0804 48.8265 10.9374 45.9375 10.9375H24.0625C21.173 10.9374 18.4009 12.0808 16.3516 14.1178C14.3023 16.1548 13.1423 18.92 13.125 21.8094C13.125 32.8973 15.1785 41.3328 16.9121 46.457C19.9336 55.3875 23.2012 58.316 24.1883 59.0352C25.0387 47.7613 28.8723 41.5625 35 41.5625C41.1277 41.5625 44.9668 47.7723 45.798 59.0461C46.7824 58.3379 50.0555 55.4203 53.0879 46.468C54.8215 41.3328 56.875 32.8973 56.875 21.8094V21.8066Z" fill="white"/>
</svg>
