<svg width="70" height="70" viewBox="0 0 70 70" fill="none" xmlns="http://www.w3.org/2000/svg">
<path d="M67.8125 56.875H65.625V35C65.625 33.8397 65.1641 32.7269 64.3436 31.9064C63.5231 31.0859 62.4103 30.625 61.25 30.625H45.9375V13.125C45.9375 11.9647 45.4766 10.8519 44.6561 10.0314C43.8356 9.21094 42.7228 8.75 41.5625 8.75H15.3125C14.1522 8.75 13.0394 9.21094 12.2189 10.0314C11.3984 10.8519 10.9375 11.9647 10.9375 13.125V56.875H8.75C8.16984 56.875 7.61344 57.1055 7.2032 57.5157C6.79297 57.9259 6.5625 58.4823 6.5625 59.0625C6.5625 59.6427 6.79297 60.1991 7.2032 60.6093C7.61344 61.0195 8.16984 61.25 8.75 61.25H67.8125C68.3927 61.25 68.9491 61.0195 69.3593 60.6093C69.7695 60.1991 70 59.6427 70 59.0625C70 58.4823 69.7695 57.9259 69.3593 57.5157C68.9491 57.1055 68.3927 56.875 67.8125 56.875ZM61.25 35V56.875H45.9375V35H61.25ZM15.3125 13.125H41.5625V56.875H37.1875V43.75C37.1875 43.1698 36.957 42.6134 36.5468 42.2032C36.1366 41.793 35.5802 41.5625 35 41.5625H21.875C21.2948 41.5625 20.7384 41.793 20.3282 42.2032C19.918 42.6134 19.6875 43.1698 19.6875 43.75V56.875H15.3125V13.125ZM32.8125 56.875H24.0625V45.9375H32.8125V56.875ZM19.6875 26.25C19.6875 25.6698 19.918 25.1134 20.3282 24.7032C20.7384 24.293 21.2948 24.0625 21.875 24.0625H26.25V19.6875C26.25 19.1073 26.4805 18.5509 26.8907 18.1407C27.3009 17.7305 27.8573 17.5 28.4375 17.5C29.0177 17.5 29.5741 17.7305 29.9843 18.1407C30.3945 18.5509 30.625 19.1073 30.625 19.6875V24.0625H35C35.5802 24.0625 36.1366 24.293 36.5468 24.7032C36.957 25.1134 37.1875 25.6698 37.1875 26.25C37.1875 26.8302 36.957 27.3866 36.5468 27.7968C36.1366 28.207 35.5802 28.4375 35 28.4375H30.625V32.8125C30.625 33.3927 30.3945 33.9491 29.9843 34.3593C29.5741 34.7695 29.0177 35 28.4375 35C27.8573 35 27.3009 34.7695 26.8907 34.3593C26.4805 33.9491 26.25 33.3927 26.25 32.8125V28.4375H21.875C21.2948 28.4375 20.7384 28.207 20.3282 27.7968C19.918 27.3866 19.6875 26.8302 19.6875 26.25Z" fill="white"/>
</svg>
