<svg width="70" height="70" viewBox="0 0 70 70" fill="none" xmlns="http://www.w3.org/2000/svg">
<g clip-path="url(#clip0_241_778)">
<path d="M3.47083 61.8486C5.92783 61.8638 9.71717 61.8859 11.6375 61.8859H11.7833C12.3866 61.8868 12.9861 61.9816 13.5602 62.1671L36.9962 69.7201C37.8893 70.0071 38.8385 70.0744 39.7632 69.9164C40.6879 69.7584 41.5608 69.3797 42.308 68.8124L68.5055 48.9126C68.9226 48.589 69.2689 48.1833 69.523 47.7205C69.7771 47.2578 69.9336 46.7479 69.9828 46.2222C70.032 45.6966 69.9729 45.1665 69.8091 44.6646C69.6453 44.1628 69.3803 43.6998 69.0305 43.3044L68.9908 43.2589C68.3802 42.5816 67.5477 42.1445 66.6434 42.0264C65.7391 41.9084 64.8223 42.1171 64.0582 42.6149L54.005 48.9803C53.9253 48.0199 53.5235 47.1146 52.8646 46.4113C52.2058 45.708 51.3287 45.2479 50.3755 45.1058L23.9295 40.9139C22.4459 40.6858 20.9282 40.9415 19.6012 41.6431L13.8413 44.7931C12.984 45.2583 12.0238 45.5013 11.0483 45.5001H3.5C2.57174 45.5001 1.6815 45.8689 1.02513 46.5252C0.368749 47.1816 0 48.0718 0 49.0001L0 58.3498C0.000275625 59.2728 0.365154 60.1583 1.0152 60.8136C1.66525 61.4689 2.54784 61.8409 3.47083 61.8486ZM2.33333 49.0001C2.33333 48.6907 2.45625 48.3939 2.67504 48.1751C2.89383 47.9564 3.19058 47.8334 3.5 47.8334H11.0483C12.4151 47.8323 13.7598 47.4894 14.9602 46.8359L20.7025 43.7011C21.5822 43.2378 22.5873 43.0689 23.5702 43.2193L50.0162 47.4111C50.507 47.4873 50.9511 47.7458 51.2597 48.1351C51.5682 48.5243 51.7186 49.0157 51.6808 49.511C51.6429 50.0063 51.4196 50.469 51.0554 50.8069C50.6913 51.1447 50.2131 51.3328 49.7163 51.3334H26.8333C26.5239 51.3334 26.2272 51.4564 26.0084 51.6751C25.7896 51.8939 25.6667 52.1907 25.6667 52.5001C25.6667 52.8095 25.7896 53.1063 26.0084 53.3251C26.2272 53.5439 26.5239 53.6668 26.8333 53.6668H32.2747L39.1743 58.9086C39.644 59.2631 40.2104 59.4663 40.7983 59.4911C41.3862 59.5159 41.9677 59.3612 42.4655 59.0474L65.3193 44.5808C65.615 44.3868 65.9695 44.3029 66.3208 44.3439C66.672 44.3848 66.9977 44.548 67.2408 44.8048C67.2499 44.8166 67.2597 44.8279 67.27 44.8386C67.4107 44.9937 67.5181 45.1761 67.5854 45.3745C67.6527 45.5728 67.6785 45.7829 67.6612 45.9916C67.6439 46.2004 67.5839 46.4033 67.4849 46.5879C67.3859 46.7725 67.25 46.9347 67.0857 47.0646L40.8975 66.9551C40.4491 67.295 39.9254 67.5217 39.3708 67.6162C38.8162 67.7106 38.2469 67.6699 37.7113 67.4976L14.273 59.9458C13.469 59.686 12.6294 59.5533 11.7845 59.5526H11.7717C9.961 59.5526 6.00017 59.5304 3.48833 59.5153C3.18175 59.511 2.88919 59.3862 2.67391 59.1678C2.45864 58.9495 2.33797 58.6552 2.338 58.3486L2.33333 49.0001ZM46.6025 53.6668L41.2172 57.0769C41.1212 57.1369 41.0093 57.1664 40.8963 57.1616C40.7832 57.1568 40.6742 57.1179 40.5837 57.0501L36.1317 53.6668H46.6025Z" fill="white"/>
<path d="M21.8037 18.7367C21.8111 19.8458 22.0379 20.9425 22.4709 21.9637C22.9039 22.9849 23.5346 23.9103 24.3268 24.6867C25.1189 25.4631 26.0568 26.0751 27.0864 26.4876C28.116 26.9001 29.2171 27.1048 30.3262 27.09C30.9144 28.7239 31.9913 30.137 33.4107 31.1375C34.83 32.1379 36.523 32.6771 38.2595 32.6818C38.9583 32.6799 39.654 32.5901 40.3303 32.4147C40.7039 33.1849 41.2855 33.8352 42.0094 34.292C42.7333 34.7489 43.5705 34.9942 44.4265 35H45.0098C45.2658 34.9994 45.518 35.0625 45.7436 35.1834C45.9692 35.3044 46.1613 35.4795 46.3025 35.693L50.1525 41.4598C50.6076 42.1434 51.2705 42.6624 52.0433 42.9403C52.816 43.2182 53.6576 43.2403 54.4439 43.0032C55.2301 42.7661 55.9192 42.2824 56.4095 41.6236C56.8997 40.9649 57.1652 40.1659 57.1665 39.3447V35C59.4164 35.0489 61.595 34.2096 63.2305 32.6638C64.866 31.118 65.8268 28.9902 65.9048 26.7412C65.9031 26.4151 65.8817 26.0894 65.8407 25.7658C67.0604 25.2606 68.1047 24.4081 68.8441 23.3143C69.5834 22.2206 69.9851 20.9337 69.9993 19.6136C70.0134 18.2935 69.6394 16.9983 68.9238 15.8889C68.2081 14.7795 67.1822 13.9048 65.9737 13.3735C65.9737 13.2957 65.9737 13.2211 65.9737 13.1495C65.9669 10.665 65.0322 8.27271 63.3528 6.44179C61.6734 4.61087 59.3705 3.47347 56.8958 3.25266C55.5953 2.13557 54.0321 1.36746 52.3531 1.02052C50.6741 0.673581 48.9345 0.759199 47.2977 1.26933C46.0061 0.435683 44.4961 0.00438691 42.959 0.0301425C41.422 0.0558981 39.9273 0.537544 38.6643 1.414C37.1623 0.728043 35.4621 0.611616 33.8806 1.08641C32.2991 1.56121 30.9442 2.59484 30.0683 3.99466C28.3608 4.02677 26.728 4.7012 25.4955 5.88353C24.263 7.06585 23.5213 8.66921 23.4183 10.374C22.2257 11.3636 21.4126 12.7357 21.1171 14.2571C20.8217 15.7784 21.0622 17.3551 21.7978 18.7192L21.8037 18.7367ZM53.3282 40.8333C53.0835 40.8303 52.8433 40.7677 52.6283 40.651C52.4132 40.5343 52.2298 40.3671 52.0938 40.1637L48.2438 34.4003C47.8901 33.8665 47.4095 33.4288 46.8452 33.1262C46.2808 32.8237 45.6502 32.6658 45.0098 32.6667H44.4265C44.0307 32.6652 43.6422 32.5594 43.3004 32.3599C42.9585 32.1604 42.6753 31.8742 42.4793 31.5303C43.4419 30.9783 44.2857 30.2412 44.962 29.3615C46.1677 29.8661 47.4493 30.1654 48.7537 30.247C49.3874 31.3843 50.2582 32.372 51.3072 33.1432C52.3561 33.9143 53.5586 34.4509 54.8332 34.7165V39.3447C54.8324 39.5413 54.7928 39.7359 54.7167 39.9172C54.6406 40.0986 54.5295 40.2631 54.3897 40.4014C54.2499 40.5397 54.0841 40.649 53.902 40.7232C53.7198 40.7973 53.5248 40.8347 53.3282 40.8333ZM63.5715 26.7377C63.4925 28.3823 62.766 29.9289 61.5507 31.0397C60.3354 32.1505 58.7299 32.7354 57.0848 32.6667C56.929 32.6703 56.773 32.6628 56.6182 32.6445C56.2441 32.6269 55.8726 32.5738 55.5087 32.4858C53.9209 32.1655 52.4833 31.3297 51.4195 30.1082C53.003 29.8439 54.5153 29.2571 55.8625 28.3841C57.2097 27.511 58.3632 26.3705 59.2513 25.0332C60.4043 25.8525 61.7837 26.2929 63.1982 26.2932C63.3148 26.2932 63.4245 26.2815 63.5377 26.2757C63.554 26.4297 63.5715 26.5848 63.5715 26.7377ZM25.2535 11.9105C25.4173 11.7975 25.5495 11.6445 25.6375 11.4661C25.7255 11.2876 25.7664 11.0896 25.7563 10.8908C25.7563 10.885 25.747 10.7567 25.747 10.7497C25.7541 9.57075 26.2288 8.44284 27.0668 7.61359C27.9048 6.78435 29.0376 6.32155 30.2165 6.32683C30.3623 6.32683 30.5047 6.335 30.6458 6.34783C30.8851 6.37243 31.126 6.32182 31.3351 6.20304C31.5442 6.08427 31.7111 5.90324 31.8125 5.68516C32.0819 5.11789 32.4678 4.61373 32.945 4.20554C33.4223 3.79735 33.9802 3.49428 34.5823 3.31608C35.1845 3.13788 35.8175 3.08855 36.44 3.17129C37.0625 3.25404 37.6606 3.46701 38.1953 3.79633C38.409 3.92732 38.6592 3.98602 38.9088 3.96375C39.1584 3.94148 39.3942 3.83941 39.5813 3.67266C40.5214 2.86226 41.7123 2.40111 42.953 2.3671C44.1937 2.33309 45.4081 2.7283 46.3912 3.486C46.5507 3.61307 46.7408 3.6961 46.9424 3.72681C47.144 3.75751 47.3502 3.73482 47.5403 3.661C48.8983 3.13959 50.3755 3.01056 51.8033 3.28865C53.231 3.56674 54.5518 4.24073 55.6148 5.23366C55.8166 5.42323 56.0792 5.53489 56.3557 5.54866C58.3133 5.63787 60.1617 6.47633 61.5184 7.89051C62.875 9.3047 63.636 11.1863 63.6438 13.146C63.6418 13.4408 63.6231 13.7353 63.5878 14.028C63.5557 14.3034 63.6228 14.5812 63.7769 14.8117C63.9311 15.0421 64.1622 15.2102 64.429 15.2857C65.0888 15.48 65.6943 15.8254 66.1973 16.2945C66.7004 16.7636 67.0873 17.3434 67.3273 17.988C67.5672 18.6326 67.6537 19.3243 67.5799 20.0081C67.506 20.692 67.2738 21.3492 66.9018 21.9277C66.5297 22.5063 66.028 22.9901 65.4363 23.341C64.8447 23.6918 64.1795 23.9 63.4934 23.949C62.8073 23.998 62.1192 23.8865 61.4838 23.6233C60.8483 23.3601 60.2829 22.9524 59.8323 22.4327C59.7053 22.2877 59.5443 22.1764 59.3637 22.1088C59.1831 22.0413 58.9886 22.0195 58.7975 22.0455C58.6065 22.0715 58.4249 22.1445 58.2689 22.2579C58.113 22.3712 57.9875 22.5215 57.9038 22.6952C57.3549 23.8255 56.5833 24.8334 55.6353 25.6584C54.6874 26.4833 53.5826 27.1083 52.3873 27.496C51.1919 27.8836 49.9306 28.0258 48.6789 27.9142C47.4273 27.8025 46.211 27.4393 45.1032 26.8462C44.8355 26.7027 44.5225 26.6692 44.2306 26.7529C43.9387 26.8365 43.6909 27.0307 43.5398 27.2942C42.9291 28.3565 42.012 29.2097 40.9085 29.7424C39.805 30.275 38.5665 30.4623 37.3548 30.2797C36.1432 30.097 35.0149 29.553 34.1174 28.7187C33.2199 27.8845 32.5951 26.7988 32.3247 25.6037C32.268 25.3435 32.124 25.1106 31.9167 24.9436C31.7093 24.7766 31.4511 24.6855 31.1848 24.6855C31.1329 24.6856 31.0811 24.6891 31.0297 24.696C30.1661 24.8203 29.2858 24.7556 28.4497 24.5063C27.6136 24.257 26.8416 23.8291 26.187 23.2522C25.5325 22.6754 25.011 21.9632 24.6587 21.165C24.3063 20.3669 24.1315 19.5017 24.1463 18.6293C24.1463 18.6188 24.1557 18.4963 24.1557 18.487C24.1664 18.254 24.1071 18.0232 23.9853 17.8243C23.5617 17.1384 23.336 16.3486 23.3332 15.5423C23.3351 14.8267 23.5109 14.1222 23.8454 13.4896C24.1799 12.8569 24.6631 12.315 25.2535 11.9105Z" fill="white"/>
<path d="M37.3333 18.6667H39.6667V21C39.6667 21.6188 39.9125 22.2123 40.3501 22.6499C40.7877 23.0875 41.3812 23.3333 42 23.3333H44.3333C44.9522 23.3333 45.5457 23.0875 45.9833 22.6499C46.4208 22.2123 46.6667 21.6188 46.6667 21V18.6667H49C49.6188 18.6667 50.2123 18.4208 50.6499 17.9832C51.0875 17.5457 51.3333 16.9522 51.3333 16.3333V14C51.3333 13.3812 51.0875 12.7877 50.6499 12.3501C50.2123 11.9125 49.6188 11.6667 49 11.6667H46.6667V9.33333C46.6667 8.71449 46.4208 8.121 45.9833 7.68342C45.5457 7.24583 44.9522 7 44.3333 7H42C41.3812 7 40.7877 7.24583 40.3501 7.68342C39.9125 8.121 39.6667 8.71449 39.6667 9.33333V11.6667H37.3333C36.7145 11.6667 36.121 11.9125 35.6834 12.3501C35.2458 12.7877 35 13.3812 35 14V16.3333C35 16.9522 35.2458 17.5457 35.6834 17.9832C36.121 18.4208 36.7145 18.6667 37.3333 18.6667ZM37.3333 14H40.8333C41.1428 14 41.4395 13.8771 41.6583 13.6583C41.8771 13.4395 42 13.1428 42 12.8333V9.33333H44.3333V12.8333C44.3333 13.1428 44.4562 13.4395 44.675 13.6583C44.8938 13.8771 45.1906 14 45.5 14H49V16.3333H45.5C45.1906 16.3333 44.8938 16.4563 44.675 16.675C44.4562 16.8938 44.3333 17.1906 44.3333 17.5V21H42V17.5C42 17.1906 41.8771 16.8938 41.6583 16.675C41.4395 16.4563 41.1428 16.3333 40.8333 16.3333H37.3333V14Z" fill="white"/>
</g>
<defs>
<clipPath id="clip0_241_778">
<rect width="70" height="70" fill="white"/>
</clipPath>
</defs>
</svg>
