<svg width="70" height="70" viewBox="0 0 70 70" fill="none" xmlns="http://www.w3.org/2000/svg">
<path d="M41.7687 34.4817C40.9579 34.4817 40.1605 34.2779 39.4428 33.8748C38.1668 33.1615 37.2985 31.9254 37.0592 30.4855C36.7624 28.7045 35.7478 27.145 34.2725 26.2146L16.7282 15.1298C16.232 14.8153 16.0814 14.1596 16.3959 13.6634C16.7105 13.1672 17.3662 13.0165 17.8624 13.3311L35.4067 24.4159C37.3915 25.6697 38.7605 27.7564 39.1548 30.1355C39.2877 30.9374 39.7706 31.6241 40.4839 32.0229C41.6801 32.6918 43.213 32.3286 43.9795 31.1899C44.1611 30.9241 44.2896 30.6317 44.3605 30.326C44.6617 29.0722 45.3529 27.9823 46.3542 27.1716C46.5978 26.9722 46.806 26.733 46.97 26.4539C47.6655 25.2754 47.3377 23.7292 46.2212 22.9361C45.4504 22.3912 44.4712 22.2893 43.6073 22.6703C41.8485 23.4456 39.8504 23.3083 38.2598 22.3026L19.6301 10.5311C19.1339 10.2165 18.9833 9.56083 19.2978 9.06463C19.6124 8.56843 20.2681 8.41779 20.7643 8.73235L39.394 20.5039C40.3864 21.1286 41.6358 21.2127 42.7478 20.721C44.3029 20.0342 46.0617 20.2115 47.4485 21.195C48.4276 21.8861 49.1054 22.9184 49.3579 24.0969C49.6105 25.2754 49.4111 26.4937 48.8041 27.526C48.5117 28.0222 48.1396 28.4564 47.6966 28.8153C47.0586 29.3292 46.6244 30.0248 46.4295 30.8222C46.2966 31.376 46.0662 31.8988 45.7428 32.3773C45.0738 33.3697 44.0592 34.0697 42.8852 34.3488C42.513 34.4374 42.1409 34.4817 41.7687 34.4817Z" fill="white"/>
<path d="M43.3107 64.9362C43.2531 64.9362 43.191 64.9318 43.1334 64.9229C42.5531 64.8255 42.1632 64.2761 42.2651 63.6957L44.4271 50.9539C44.9145 48.0122 46.4031 45.3672 48.6094 43.5065C49.0834 43.1077 49.3847 42.5451 49.4556 41.9204C49.5974 40.6799 48.7467 39.5236 47.5195 39.2799C47.1872 39.2134 46.855 39.2179 46.5271 39.2888C45.4107 39.5369 44.2632 39.3419 43.2841 38.7482C43.0005 38.5755 42.686 38.4647 42.3493 38.4204C41.1132 38.252 39.9347 39.0761 39.6645 40.2945C39.5005 41.0432 39.6866 41.8096 40.1828 42.39C41.5961 44.0514 42.1986 46.271 41.8309 48.4818L39.3366 63.2172C39.2391 63.7976 38.6898 64.1875 38.1094 64.09C37.529 63.9926 37.1391 63.4432 37.2366 62.8628L39.7265 48.1318C39.9923 46.5457 39.5626 44.9552 38.5569 43.7679C37.6265 42.6736 37.2721 41.2426 37.5822 39.8381C38.0872 37.5476 40.3024 36.0014 42.6284 36.316C43.2575 36.4002 43.8467 36.6084 44.3828 36.9362C44.8879 37.2419 45.4815 37.3438 46.0575 37.2153C46.6733 37.078 47.298 37.0736 47.9227 37.1976C50.2265 37.6539 51.8214 39.8337 51.56 42.1641C51.4271 43.3293 50.8645 44.3837 49.9695 45.1369C48.1486 46.6698 46.9214 48.8628 46.5138 51.3084L44.3518 64.0546C44.2676 64.5685 43.8202 64.9362 43.3107 64.9362Z" fill="white"/>
<path d="M52.6628 36.5241C52.5609 36.5241 52.459 36.5197 52.3571 36.5064L49.2692 36.1387C48.3122 36.0235 47.5147 35.3944 47.1825 34.4906C46.8502 33.5868 47.054 32.5899 47.7097 31.8855C48.3299 31.221 48.9945 30.5032 49.5616 29.8963C50.1242 29.2937 50.9439 29.0013 51.759 29.1077C52.5742 29.2184 53.292 29.7191 53.673 30.4456L54.909 32.8026C55.3477 33.6399 55.2856 34.6456 54.7496 35.4254C54.2755 36.1165 53.4913 36.5241 52.6628 36.5241ZM51.4223 31.2077C51.3382 31.2077 51.223 31.2298 51.1211 31.3406C50.554 31.952 49.8894 32.6653 49.2692 33.3298C49.1185 33.4937 49.1495 33.6665 49.185 33.7551C49.216 33.8437 49.3046 33.9988 49.5261 34.0254L52.6141 34.3931C52.8312 34.4197 52.9508 34.2956 53.004 34.2159C53.0571 34.1406 53.1325 33.9811 53.0306 33.7861L51.7945 31.4292C51.7059 31.2653 51.5597 31.221 51.4799 31.2121C51.4622 31.2077 51.4445 31.2077 51.4223 31.2077Z" fill="white"/>
<path d="M52.8408 69.0253C52.77 69.0253 52.7035 69.0164 52.6326 69.0031C52.0567 68.888 51.6845 68.3297 51.7997 67.7538L57.9757 36.9272C59.2605 30.5031 56.3719 23.8886 50.7851 20.4639L22.156 2.94618C21.6554 2.64049 21.4959 1.98479 21.806 1.48416C22.1162 0.983524 22.7674 0.82403 23.2681 1.13416L51.8927 18.6519C55.0206 20.5658 57.4484 23.3525 58.9149 26.7152C60.3813 30.0734 60.7801 33.7506 60.0579 37.3481L53.882 68.1747C53.7845 68.6753 53.337 69.0253 52.8408 69.0253Z" fill="white"/>
<path d="M29.3109 65.8443C29.2002 65.8443 29.085 65.8266 28.9698 65.7868C28.4116 65.6007 28.1147 64.9937 28.3008 64.4399C28.3362 64.3336 31.9381 53.5368 30.8483 47.9456C30.3255 45.283 30.7286 42.2038 32.0445 38.788C32.5584 37.45 33.1166 36.3292 33.5286 35.5671C29.8957 34.0209 26.4622 32.3152 23.3033 30.4811C20.5122 28.864 17.9293 27.145 15.6255 25.3728C11.6691 22.338 9.90586 20.1981 9.83497 20.1095C9.46282 19.6532 9.5337 18.9842 9.9856 18.6121C10.4419 18.2399 11.1109 18.3108 11.4786 18.7627C11.4964 18.7849 13.2065 20.8494 16.9989 23.7513C20.5033 26.4317 26.5464 30.4013 35.4559 34.0697C35.7483 34.1893 35.9698 34.433 36.0672 34.7342C36.1603 35.0355 36.1204 35.3633 35.9476 35.6292C35.9078 35.6912 31.8672 42.0975 32.935 47.538C34.1356 53.683 30.4761 64.657 30.3166 65.1222C30.166 65.5652 29.754 65.8443 29.3109 65.8443Z" fill="white"/>
</svg>
