<svg width="154" height="409" viewBox="0 0 154 409" fill="none" xmlns="http://www.w3.org/2000/svg">
<path fill-rule="evenodd" clip-rule="evenodd" d="M49 0H0C18.8 2 20 21.5 20 34.5V360C20 376.569 33.4315 390 50 390H124C124.321 390 124.642 389.995 124.961 389.985C146.326 390.025 153.511 401.665 154 409V361C153.983 361.353 153.96 361.701 153.931 362.047C153.977 361.371 154 360.688 154 360V30C154 13.4315 140.569 0 124 0H50C49.6254 0 49.2523 0.00686685 48.881 0.0204815C48.9208 0.0135223 48.9605 0.00669528 49 0Z" fill="white"/>
</svg>
