<svg width="605" height="150" viewBox="0 0 605 150" fill="none" xmlns="http://www.w3.org/2000/svg">
<path fill-rule="evenodd" clip-rule="evenodd" d="M0.026418 58.7084C0.0175863 58.7406 0.00878032 58.7727 0 58.8049V0C0.5 9.33333 9.7 28.2 30.5 29C30.4905 29.0015 30.481 29.0029 30.4715 29.0044C30.6473 29.0015 30.8235 29 31 29H546C563.121 29 577 42.8792 577 60V119C577 119.221 576.998 119.442 576.993 119.662C576.996 119.607 576.998 119.554 577 119.5C578.2 141.1 596.166 149.167 605 150H546.5L546.551 149.995C546.367 149.998 546.184 150 546 150H31C13.8792 150 0 136.121 0 119V60C0 59.5673 0.00886321 59.1368 0.026418 58.7084Z" fill="white"/>
</svg>
